<svg xmlns="http://www.w3.org/2000/svg" width="960" height="960" viewBox="0 0 960 960">
  <rect id="work-frame" width="960" height="960" fill="#202020"/>
  <g id="work-canvas" transform="translate(16 16) scale(0.9666666666666667)">
    <rect id="canvas-bg" width="960" height="960" fill="#000000"/>
    <g id="binary-background" opacity="0.50" fill="#006100" aria-label="UTF-8 binary background: prompt line bytes then agent line bytes; green circles are one bits and empty square cells are zero bits" data-grid-columns="35" data-grid-rows="33" data-cell-size="24" data-origin-x="60" data-origin-y="91" data-dot-radius="7" data-zero="empty">
      <circle cx="96" cy="103" r="7"/>
      <circle cx="120" cy="103" r="7"/>
      <circle cx="144" cy="103" r="7"/>
      <circle cx="192" cy="103" r="7"/>
      <circle cx="288" cy="103" r="7"/>
      <circle cx="312" cy="103" r="7"/>
      <circle cx="336" cy="103" r="7"/>
      <circle cx="408" cy="103" r="7"/>
      <circle cx="480" cy="103" r="7"/>
      <circle cx="504" cy="103" r="7"/>
      <circle cx="624" cy="103" r="7"/>
      <circle cx="672" cy="103" r="7"/>
      <circle cx="696" cy="103" r="7"/>
      <circle cx="792" cy="103" r="7"/>
      <circle cx="816" cy="103" r="7"/>
      <circle cx="864" cy="103" r="7"/>
      <circle cx="888" cy="103" r="7"/>
      <circle cx="120" cy="127" r="7"/>
      <circle cx="168" cy="127" r="7"/>
      <circle cx="240" cy="127" r="7"/>
      <circle cx="408" cy="127" r="7"/>
      <circle cx="432" cy="127" r="7"/>
      <circle cx="456" cy="127" r="7"/>
      <circle cx="504" cy="127" r="7"/>
      <circle cx="600" cy="127" r="7"/>
      <circle cx="624" cy="127" r="7"/>
      <circle cx="672" cy="127" r="7"/>
      <circle cx="792" cy="127" r="7"/>
      <circle cx="816" cy="127" r="7"/>
      <circle cx="888" cy="127" r="7"/>
      <circle cx="96" cy="151" r="7"/>
      <circle cx="168" cy="151" r="7"/>
      <circle cx="336" cy="151" r="7"/>
      <circle cx="360" cy="151" r="7"/>
      <circle cx="384" cy="151" r="7"/>
      <circle cx="480" cy="151" r="7"/>
      <circle cx="528" cy="151" r="7"/>
      <circle cx="552" cy="151" r="7"/>
      <circle cx="576" cy="151" r="7"/>
      <circle cx="624" cy="151" r="7"/>
      <circle cx="672" cy="151" r="7"/>
      <circle cx="720" cy="151" r="7"/>
      <circle cx="744" cy="151" r="7"/>
      <circle cx="792" cy="151" r="7"/>
      <circle cx="864" cy="151" r="7"/>
      <circle cx="72" cy="175" r="7"/>
      <circle cx="96" cy="175" r="7"/>
      <circle cx="168" cy="175" r="7"/>
      <circle cx="216" cy="175" r="7"/>
      <circle cx="264" cy="175" r="7"/>
      <circle cx="288" cy="175" r="7"/>
      <circle cx="312" cy="175" r="7"/>
      <circle cx="360" cy="175" r="7"/>
      <circle cx="480" cy="175" r="7"/>
      <circle cx="648" cy="175" r="7"/>
      <circle cx="672" cy="175" r="7"/>
      <circle cx="696" cy="175" r="7"/>
      <circle cx="768" cy="175" r="7"/>
      <circle cx="792" cy="175" r="7"/>
      <circle cx="840" cy="175" r="7"/>
      <circle cx="864" cy="175" r="7"/>
      <circle cx="72" cy="199" r="7"/>
      <circle cx="144" cy="199" r="7"/>
      <circle cx="192" cy="199" r="7"/>
      <circle cx="216" cy="199" r="7"/>
      <circle cx="288" cy="199" r="7"/>
      <circle cx="312" cy="199" r="7"/>
      <circle cx="336" cy="199" r="7"/>
      <circle cx="384" cy="199" r="7"/>
      <circle cx="408" cy="199" r="7"/>
      <circle cx="456" cy="199" r="7"/>
      <circle cx="480" cy="199" r="7"/>
      <circle cx="504" cy="199" r="7"/>
      <circle cx="576" cy="199" r="7"/>
      <circle cx="600" cy="199" r="7"/>
      <circle cx="720" cy="199" r="7"/>
      <circle cx="768" cy="199" r="7"/>
      <circle cx="792" cy="199" r="7"/>
      <circle cx="840" cy="199" r="7"/>
      <circle cx="864" cy="199" r="7"/>
      <circle cx="144" cy="223" r="7"/>
      <circle cx="312" cy="223" r="7"/>
      <circle cx="336" cy="223" r="7"/>
      <circle cx="456" cy="223" r="7"/>
      <circle cx="504" cy="223" r="7"/>
      <circle cx="528" cy="223" r="7"/>
      <circle cx="624" cy="223" r="7"/>
      <circle cx="648" cy="223" r="7"/>
      <circle cx="696" cy="223" r="7"/>
      <circle cx="720" cy="223" r="7"/>
      <circle cx="744" cy="223" r="7"/>
      <circle cx="816" cy="223" r="7"/>
      <circle cx="888" cy="223" r="7"/>
      <circle cx="72" cy="247" r="7"/>
      <circle cx="120" cy="247" r="7"/>
      <circle cx="144" cy="247" r="7"/>
      <circle cx="168" cy="247" r="7"/>
      <circle cx="192" cy="247" r="7"/>
      <circle cx="240" cy="247" r="7"/>
      <circle cx="264" cy="247" r="7"/>
      <circle cx="288" cy="247" r="7"/>
      <circle cx="360" cy="247" r="7"/>
      <circle cx="384" cy="247" r="7"/>
      <circle cx="432" cy="247" r="7"/>
      <circle cx="456" cy="247" r="7"/>
      <circle cx="480" cy="247" r="7"/>
      <circle cx="552" cy="247" r="7"/>
      <circle cx="576" cy="247" r="7"/>
      <circle cx="648" cy="247" r="7"/>
      <circle cx="816" cy="247" r="7"/>
      <circle cx="840" cy="247" r="7"/>
      <circle cx="864" cy="247" r="7"/>
      <circle cx="72" cy="271" r="7"/>
      <circle cx="168" cy="271" r="7"/>
      <circle cx="192" cy="271" r="7"/>
      <circle cx="240" cy="271" r="7"/>
      <circle cx="360" cy="271" r="7"/>
      <circle cx="384" cy="271" r="7"/>
      <circle cx="456" cy="271" r="7"/>
      <circle cx="504" cy="271" r="7"/>
      <circle cx="576" cy="271" r="7"/>
      <circle cx="744" cy="271" r="7"/>
      <circle cx="768" cy="271" r="7"/>
      <circle cx="888" cy="271" r="7"/>
      <circle cx="96" cy="295" r="7"/>
      <circle cx="120" cy="295" r="7"/>
      <circle cx="144" cy="295" r="7"/>
      <circle cx="216" cy="295" r="7"/>
      <circle cx="288" cy="295" r="7"/>
      <circle cx="312" cy="295" r="7"/>
      <circle cx="408" cy="295" r="7"/>
      <circle cx="432" cy="295" r="7"/>
      <circle cx="480" cy="295" r="7"/>
      <circle cx="504" cy="295" r="7"/>
      <circle cx="552" cy="295" r="7"/>
      <circle cx="672" cy="295" r="7"/>
      <circle cx="696" cy="295" r="7"/>
      <circle cx="744" cy="295" r="7"/>
      <circle cx="816" cy="295" r="7"/>
      <circle cx="864" cy="295" r="7"/>
      <circle cx="888" cy="295" r="7"/>
      <circle cx="72" cy="319" r="7"/>
      <circle cx="120" cy="319" r="7"/>
      <circle cx="144" cy="319" r="7"/>
      <circle cx="216" cy="319" r="7"/>
      <circle cx="240" cy="319" r="7"/>
      <circle cx="312" cy="319" r="7"/>
      <circle cx="360" cy="319" r="7"/>
      <circle cx="432" cy="319" r="7"/>
      <circle cx="600" cy="319" r="7"/>
      <circle cx="624" cy="319" r="7"/>
      <circle cx="720" cy="319" r="7"/>
      <circle cx="792" cy="319" r="7"/>
      <circle cx="816" cy="319" r="7"/>
      <circle cx="888" cy="319" r="7"/>
      <circle cx="96" cy="343" r="7"/>
      <circle cx="144" cy="343" r="7"/>
      <circle cx="168" cy="343" r="7"/>
      <circle cx="240" cy="343" r="7"/>
      <circle cx="264" cy="343" r="7"/>
      <circle cx="336" cy="343" r="7"/>
      <circle cx="360" cy="343" r="7"/>
      <circle cx="408" cy="343" r="7"/>
      <circle cx="432" cy="343" r="7"/>
      <circle cx="456" cy="343" r="7"/>
      <circle cx="480" cy="343" r="7"/>
      <circle cx="528" cy="343" r="7"/>
      <circle cx="552" cy="343" r="7"/>
      <circle cx="576" cy="343" r="7"/>
      <circle cx="648" cy="343" r="7"/>
      <circle cx="720" cy="343" r="7"/>
      <circle cx="744" cy="343" r="7"/>
      <circle cx="816" cy="343" r="7"/>
      <circle cx="864" cy="343" r="7"/>
      <circle cx="96" cy="367" r="7"/>
      <circle cx="264" cy="367" r="7"/>
      <circle cx="288" cy="367" r="7"/>
      <circle cx="336" cy="367" r="7"/>
      <circle cx="408" cy="367" r="7"/>
      <circle cx="456" cy="367" r="7"/>
      <circle cx="480" cy="367" r="7"/>
      <circle cx="504" cy="367" r="7"/>
      <circle cx="552" cy="367" r="7"/>
      <circle cx="672" cy="367" r="7"/>
      <circle cx="840" cy="367" r="7"/>
      <circle cx="864" cy="367" r="7"/>
      <circle cx="120" cy="391" r="7"/>
      <circle cx="192" cy="391" r="7"/>
      <circle cx="216" cy="391" r="7"/>
      <circle cx="288" cy="391" r="7"/>
      <circle cx="336" cy="391" r="7"/>
      <circle cx="384" cy="391" r="7"/>
      <circle cx="408" cy="391" r="7"/>
      <circle cx="504" cy="391" r="7"/>
      <circle cx="528" cy="391" r="7"/>
      <circle cx="576" cy="391" r="7"/>
      <circle cx="600" cy="391" r="7"/>
      <circle cx="648" cy="391" r="7"/>
      <circle cx="672" cy="391" r="7"/>
      <circle cx="696" cy="391" r="7"/>
      <circle cx="720" cy="391" r="7"/>
      <circle cx="768" cy="391" r="7"/>
      <circle cx="792" cy="391" r="7"/>
      <circle cx="840" cy="391" r="7"/>
      <circle cx="864" cy="391" r="7"/>
      <circle cx="72" cy="415" r="7"/>
      <circle cx="120" cy="415" r="7"/>
      <circle cx="144" cy="415" r="7"/>
      <circle cx="216" cy="415" r="7"/>
      <circle cx="264" cy="415" r="7"/>
      <circle cx="312" cy="415" r="7"/>
      <circle cx="336" cy="415" r="7"/>
      <circle cx="360" cy="415" r="7"/>
      <circle cx="432" cy="415" r="7"/>
      <circle cx="456" cy="415" r="7"/>
      <circle cx="528" cy="415" r="7"/>
      <circle cx="696" cy="415" r="7"/>
      <circle cx="720" cy="415" r="7"/>
      <circle cx="840" cy="415" r="7"/>
      <circle cx="888" cy="415" r="7"/>
      <circle cx="72" cy="439" r="7"/>
      <circle cx="120" cy="439" r="7"/>
      <circle cx="144" cy="439" r="7"/>
      <circle cx="168" cy="439" r="7"/>
      <circle cx="240" cy="439" r="7"/>
      <circle cx="264" cy="439" r="7"/>
      <circle cx="312" cy="439" r="7"/>
      <circle cx="336" cy="439" r="7"/>
      <circle cx="360" cy="439" r="7"/>
      <circle cx="384" cy="439" r="7"/>
      <circle cx="432" cy="439" r="7"/>
      <circle cx="456" cy="439" r="7"/>
      <circle cx="480" cy="439" r="7"/>
      <circle cx="528" cy="439" r="7"/>
      <circle cx="624" cy="439" r="7"/>
      <circle cx="648" cy="439" r="7"/>
      <circle cx="696" cy="439" r="7"/>
      <circle cx="816" cy="439" r="7"/>
      <circle cx="840" cy="439" r="7"/>
      <circle cx="72" cy="463" r="7"/>
      <circle cx="120" cy="463" r="7"/>
      <circle cx="168" cy="463" r="7"/>
      <circle cx="192" cy="463" r="7"/>
      <circle cx="216" cy="463" r="7"/>
      <circle cx="288" cy="463" r="7"/>
      <circle cx="384" cy="463" r="7"/>
      <circle cx="552" cy="463" r="7"/>
      <circle cx="576" cy="463" r="7"/>
      <circle cx="600" cy="463" r="7"/>
      <circle cx="648" cy="463" r="7"/>
      <circle cx="672" cy="463" r="7"/>
      <circle cx="744" cy="463" r="7"/>
      <circle cx="768" cy="463" r="7"/>
      <circle cx="816" cy="463" r="7"/>
      <circle cx="888" cy="463" r="7"/>
      <circle cx="96" cy="487" r="7"/>
      <circle cx="120" cy="487" r="7"/>
      <circle cx="144" cy="487" r="7"/>
      <circle cx="216" cy="487" r="7"/>
      <circle cx="240" cy="487" r="7"/>
      <circle cx="288" cy="487" r="7"/>
      <circle cx="312" cy="487" r="7"/>
      <circle cx="360" cy="487" r="7"/>
      <circle cx="432" cy="487" r="7"/>
      <circle cx="480" cy="487" r="7"/>
      <circle cx="504" cy="487" r="7"/>
      <circle cx="600" cy="487" r="7"/>
      <circle cx="672" cy="487" r="7"/>
      <circle cx="696" cy="487" r="7"/>
      <circle cx="744" cy="487" r="7"/>
      <circle cx="768" cy="487" r="7"/>
      <circle cx="864" cy="487" r="7"/>
      <circle cx="888" cy="487" r="7"/>
      <circle cx="120" cy="511" r="7"/>
      <circle cx="168" cy="511" r="7"/>
      <circle cx="240" cy="511" r="7"/>
      <circle cx="408" cy="511" r="7"/>
      <circle cx="432" cy="511" r="7"/>
      <circle cx="456" cy="511" r="7"/>
      <circle cx="600" cy="511" r="7"/>
      <circle cx="624" cy="511" r="7"/>
      <circle cx="648" cy="511" r="7"/>
      <circle cx="720" cy="511" r="7"/>
      <circle cx="792" cy="511" r="7"/>
      <circle cx="816" cy="511" r="7"/>
      <circle cx="864" cy="511" r="7"/>
      <circle cx="888" cy="511" r="7"/>
      <circle cx="72" cy="535" r="7"/>
      <circle cx="96" cy="535" r="7"/>
      <circle cx="144" cy="535" r="7"/>
      <circle cx="168" cy="535" r="7"/>
      <circle cx="216" cy="535" r="7"/>
      <circle cx="240" cy="535" r="7"/>
      <circle cx="264" cy="535" r="7"/>
      <circle cx="288" cy="535" r="7"/>
      <circle cx="336" cy="535" r="7"/>
      <circle cx="360" cy="535" r="7"/>
      <circle cx="432" cy="535" r="7"/>
      <circle cx="456" cy="535" r="7"/>
      <circle cx="552" cy="535" r="7"/>
      <circle cx="720" cy="535" r="7"/>
      <circle cx="744" cy="535" r="7"/>
      <circle cx="792" cy="535" r="7"/>
      <circle cx="816" cy="535" r="7"/>
      <circle cx="840" cy="535" r="7"/>
      <circle cx="864" cy="535" r="7"/>
      <circle cx="72" cy="559" r="7"/>
      <circle cx="96" cy="559" r="7"/>
      <circle cx="168" cy="559" r="7"/>
      <circle cx="192" cy="559" r="7"/>
      <circle cx="288" cy="559" r="7"/>
      <circle cx="456" cy="559" r="7"/>
      <circle cx="480" cy="559" r="7"/>
      <circle cx="600" cy="559" r="7"/>
      <circle cx="648" cy="559" r="7"/>
      <circle cx="672" cy="559" r="7"/>
      <circle cx="696" cy="559" r="7"/>
      <circle cx="744" cy="559" r="7"/>
      <circle cx="840" cy="559" r="7"/>
      <circle cx="864" cy="559" r="7"/>
      <circle cx="888" cy="559" r="7"/>
      <circle cx="96" cy="583" r="7"/>
      <circle cx="192" cy="583" r="7"/>
      <circle cx="216" cy="583" r="7"/>
      <circle cx="288" cy="583" r="7"/>
      <circle cx="336" cy="583" r="7"/>
      <circle cx="384" cy="583" r="7"/>
      <circle cx="408" cy="583" r="7"/>
      <circle cx="456" cy="583" r="7"/>
      <circle cx="480" cy="583" r="7"/>
      <circle cx="504" cy="583" r="7"/>
      <circle cx="576" cy="583" r="7"/>
      <circle cx="600" cy="583" r="7"/>
      <circle cx="624" cy="583" r="7"/>
      <circle cx="672" cy="583" r="7"/>
      <circle cx="768" cy="583" r="7"/>
      <circle cx="792" cy="583" r="7"/>
      <circle cx="840" cy="583" r="7"/>
      <circle cx="72" cy="607" r="7"/>
      <circle cx="120" cy="607" r="7"/>
      <circle cx="144" cy="607" r="7"/>
      <circle cx="192" cy="607" r="7"/>
      <circle cx="216" cy="607" r="7"/>
      <circle cx="240" cy="607" r="7"/>
      <circle cx="264" cy="607" r="7"/>
      <circle cx="312" cy="607" r="7"/>
      <circle cx="336" cy="607" r="7"/>
      <circle cx="384" cy="607" r="7"/>
      <circle cx="408" cy="607" r="7"/>
      <circle cx="432" cy="607" r="7"/>
      <circle cx="528" cy="607" r="7"/>
      <circle cx="696" cy="607" r="7"/>
      <circle cx="720" cy="607" r="7"/>
      <circle cx="816" cy="607" r="7"/>
      <circle cx="840" cy="607" r="7"/>
      <circle cx="888" cy="607" r="7"/>
      <circle cx="72" cy="631" r="7"/>
      <circle cx="192" cy="631" r="7"/>
      <circle cx="240" cy="631" r="7"/>
      <circle cx="264" cy="631" r="7"/>
      <circle cx="288" cy="631" r="7"/>
      <circle cx="360" cy="631" r="7"/>
      <circle cx="432" cy="631" r="7"/>
      <circle cx="456" cy="631" r="7"/>
      <circle cx="480" cy="631" r="7"/>
      <circle cx="552" cy="631" r="7"/>
      <circle cx="624" cy="631" r="7"/>
      <circle cx="648" cy="631" r="7"/>
      <circle cx="696" cy="631" r="7"/>
      <circle cx="768" cy="631" r="7"/>
      <circle cx="816" cy="631" r="7"/>
      <circle cx="840" cy="631" r="7"/>
      <circle cx="72" cy="655" r="7"/>
      <circle cx="120" cy="655" r="7"/>
      <circle cx="168" cy="655" r="7"/>
      <circle cx="192" cy="655" r="7"/>
      <circle cx="264" cy="655" r="7"/>
      <circle cx="384" cy="655" r="7"/>
      <circle cx="552" cy="655" r="7"/>
      <circle cx="576" cy="655" r="7"/>
      <circle cx="600" cy="655" r="7"/>
      <circle cx="648" cy="655" r="7"/>
      <circle cx="744" cy="655" r="7"/>
      <circle cx="768" cy="655" r="7"/>
      <circle cx="816" cy="655" r="7"/>
      <circle cx="96" cy="679" r="7"/>
      <circle cx="120" cy="679" r="7"/>
      <circle cx="144" cy="679" r="7"/>
      <circle cx="216" cy="679" r="7"/>
      <circle cx="288" cy="679" r="7"/>
      <circle cx="312" cy="679" r="7"/>
      <circle cx="360" cy="679" r="7"/>
      <circle cx="384" cy="679" r="7"/>
      <circle cx="408" cy="679" r="7"/>
      <circle cx="432" cy="679" r="7"/>
      <circle cx="480" cy="679" r="7"/>
      <circle cx="504" cy="679" r="7"/>
      <circle cx="528" cy="679" r="7"/>
      <circle cx="576" cy="679" r="7"/>
      <circle cx="624" cy="679" r="7"/>
      <circle cx="672" cy="679" r="7"/>
      <circle cx="696" cy="679" r="7"/>
      <circle cx="768" cy="679" r="7"/>
      <circle cx="792" cy="679" r="7"/>
      <circle cx="816" cy="679" r="7"/>
      <circle cx="864" cy="679" r="7"/>
      <circle cx="888" cy="679" r="7"/>
      <circle cx="96" cy="703" r="7"/>
      <circle cx="240" cy="703" r="7"/>
      <circle cx="408" cy="703" r="7"/>
      <circle cx="432" cy="703" r="7"/>
      <circle cx="456" cy="703" r="7"/>
      <circle cx="504" cy="703" r="7"/>
      <circle cx="600" cy="703" r="7"/>
      <circle cx="624" cy="703" r="7"/>
      <circle cx="672" cy="703" r="7"/>
      <circle cx="792" cy="703" r="7"/>
      <circle cx="816" cy="703" r="7"/>
      <circle cx="888" cy="703" r="7"/>
      <circle cx="96" cy="727" r="7"/>
      <circle cx="168" cy="727" r="7"/>
      <circle cx="336" cy="727" r="7"/>
      <circle cx="360" cy="727" r="7"/>
      <circle cx="384" cy="727" r="7"/>
      <circle cx="432" cy="727" r="7"/>
      <circle cx="456" cy="727" r="7"/>
      <circle cx="480" cy="727" r="7"/>
      <circle cx="528" cy="727" r="7"/>
      <circle cx="552" cy="727" r="7"/>
      <circle cx="600" cy="727" r="7"/>
      <circle cx="672" cy="727" r="7"/>
      <circle cx="720" cy="727" r="7"/>
      <circle cx="744" cy="727" r="7"/>
      <circle cx="792" cy="727" r="7"/>
      <circle cx="816" cy="727" r="7"/>
      <circle cx="840" cy="727" r="7"/>
      <circle cx="72" cy="751" r="7"/>
      <circle cx="96" cy="751" r="7"/>
      <circle cx="168" cy="751" r="7"/>
      <circle cx="264" cy="751" r="7"/>
      <circle cx="288" cy="751" r="7"/>
      <circle cx="336" cy="751" r="7"/>
      <circle cx="360" cy="751" r="7"/>
      <circle cx="384" cy="751" r="7"/>
      <circle cx="408" cy="751" r="7"/>
      <circle cx="456" cy="751" r="7"/>
      <circle cx="480" cy="751" r="7"/>
      <circle cx="504" cy="751" r="7"/>
      <circle cx="552" cy="751" r="7"/>
      <circle cx="576" cy="751" r="7"/>
      <circle cx="600" cy="751" r="7"/>
      <circle cx="672" cy="751" r="7"/>
      <circle cx="840" cy="751" r="7"/>
      <circle cx="864" cy="751" r="7"/>
      <circle cx="144" cy="775" r="7"/>
      <circle cx="192" cy="775" r="7"/>
      <circle cx="216" cy="775" r="7"/>
      <circle cx="264" cy="775" r="7"/>
      <circle cx="288" cy="775" r="7"/>
      <circle cx="312" cy="775" r="7"/>
      <circle cx="384" cy="775" r="7"/>
      <circle cx="408" cy="775" r="7"/>
      <circle cx="480" cy="775" r="7"/>
      <circle cx="600" cy="775" r="7"/>
      <circle cx="768" cy="775" r="7"/>
      <circle cx="792" cy="775" r="7"/>
      <circle cx="888" cy="775" r="7"/>
      <circle cx="120" cy="799" r="7"/>
      <circle cx="144" cy="799" r="7"/>
      <circle cx="264" cy="799" r="7"/>
      <circle cx="312" cy="799" r="7"/>
      <circle cx="336" cy="799" r="7"/>
      <circle cx="432" cy="799" r="7"/>
      <circle cx="456" cy="799" r="7"/>
      <circle cx="504" cy="799" r="7"/>
      <circle cx="528" cy="799" r="7"/>
      <circle cx="576" cy="799" r="7"/>
      <circle cx="624" cy="799" r="7"/>
      <circle cx="648" cy="799" r="7"/>
      <circle cx="696" cy="799" r="7"/>
      <circle cx="720" cy="799" r="7"/>
      <circle cx="744" cy="799" r="7"/>
      <circle cx="840" cy="799" r="7"/>
      <circle cx="888" cy="799" r="7"/>
      <circle cx="72" cy="823" r="7"/>
      <circle cx="96" cy="823" r="7"/>
      <circle cx="144" cy="823" r="7"/>
      <circle cx="192" cy="823" r="7"/>
      <circle cx="240" cy="823" r="7"/>
      <circle cx="264" cy="823" r="7"/>
      <circle cx="312" cy="823" r="7"/>
      <circle cx="384" cy="823" r="7"/>
      <circle cx="432" cy="823" r="7"/>
      <circle cx="456" cy="823" r="7"/>
      <circle cx="528" cy="823" r="7"/>
      <circle cx="576" cy="823" r="7"/>
      <circle cx="624" cy="823" r="7"/>
      <circle cx="648" cy="823" r="7"/>
      <circle cx="672" cy="823" r="7"/>
      <circle cx="720" cy="823" r="7"/>
      <circle cx="840" cy="823" r="7"/>
      <circle cx="168" cy="847" r="7"/>
      <circle cx="192" cy="847" r="7"/>
      <circle cx="312" cy="847" r="7"/>
      <circle cx="360" cy="847" r="7"/>
      <circle cx="384" cy="847" r="7"/>
      <circle cx="408" cy="847" r="7"/>
      <circle cx="480" cy="847" r="7"/>
      <circle cx="552" cy="847" r="7"/>
      <circle cx="576" cy="847" r="7"/>
      <circle cx="672" cy="847" r="7"/>
      <circle cx="696" cy="847" r="7"/>
      <circle cx="744" cy="847" r="7"/>
      <circle cx="768" cy="847" r="7"/>
      <circle cx="816" cy="847" r="7"/>
      <circle cx="96" cy="871" r="7"/>
      <circle cx="120" cy="871" r="7"/>
      <circle cx="168" cy="871" r="7"/>
      <circle cx="240" cy="871" r="7"/>
      <circle cx="288" cy="871" r="7"/>
      <circle cx="312" cy="871" r="7"/>
      <circle cx="336" cy="871" r="7"/>
      <circle cx="384" cy="871" r="7"/>
      <circle cx="408" cy="871" r="7"/>
      <circle cx="480" cy="871" r="7"/>
      <circle cx="504" cy="871" r="7"/>
      <circle cx="576" cy="871" r="7"/>
      <circle cx="624" cy="871" r="7"/>
    </g>

    <defs>
      <clipPath id="agent-line-clip">
        <rect x="88" y="378" width="784" height="70" rx="8"/>
      </clipPath>
      <clipPath id="prompt-line-clip">
        <rect x="166" y="868" width="628" height="44" rx="8"/>
      </clipPath>
    </defs>

    <g id="agent-line-area">
      <rect id="agent-line-bg" x="87" y="378" width="786" height="70" rx="8" fill="none" stroke="#ffffff" stroke-width="1"/>
      <text id="agent-line-text" x="480" y="413" text-anchor="middle" dominant-baseline="middle" font-family="ui-monospace, SFMono-Regular, Menlo, Monaco, Consolas, 'Noto Sans Mono', 'Noto Sans Mono CJK SC', 'Noto Sans Mono CJK JP', 'Noto Sans Mono CJK KR', 'Noto Sans', monospace, sans-serif" font-size="44" fill="#ffffff" clip-path="url(#agent-line-clip)">quiet archive</text>
    </g>

    <g id="prompt-line-area">
      <rect id="prompt-line-bg" x="165" y="868" width="630" height="44" rx="8" fill="none" stroke="#ffffff" stroke-width="1"/>
      <g id="prompt-line-carousel">
        <text id="prompt-line-text" x="166" y="890" dominant-baseline="middle" font-family="ui-monospace, SFMono-Regular, Menlo, Monaco, Consolas, 'Noto Sans Mono', 'Noto Sans Mono CJK SC', 'Noto Sans Mono CJK JP', 'Noto Sans Mono CJK KR', 'Noto Sans', monospace, sans-serif" font-size="16" fill="#ffffff" clip-path="url(#prompt-line-clip)">trace the quiet signal across the archive before it becomes another visible proof of attention carried through the window and back<animate attributeName="x" values="166;-1258" dur="18s" repeatCount="indefinite"/></text>
        <text id="prompt-line-text-copy" x="1590" y="890" dominant-baseline="middle" font-family="ui-monospace, SFMono-Regular, Menlo, Monaco, Consolas, 'Noto Sans Mono', 'Noto Sans Mono CJK SC', 'Noto Sans Mono CJK JP', 'Noto Sans Mono CJK KR', 'Noto Sans', monospace, sans-serif" font-size="16" fill="#ffffff" clip-path="url(#prompt-line-clip)">trace the quiet signal across the archive before it becomes another visible proof of attention carried through the window and back<animate attributeName="x" values="1590;166" dur="18s" repeatCount="indefinite"/></text>
      </g>
    </g>
  </g>
</svg>