<svg xmlns="http://www.w3.org/2000/svg" width="960" height="960" viewBox="0 0 960 960">
  <rect id="work-frame" width="960" height="960" fill="#202020"/>
  <g id="work-canvas" transform="translate(16 16) scale(0.9666666666666667)">
    <rect id="canvas-bg" width="960" height="960" fill="#000000"/>
    <g id="binary-background" opacity="0.50" fill="#006100" aria-label="UTF-8 binary background: prompt line bytes then agent line bytes; filled green circles are one bits and hollow green circles are zero bits" data-grid-columns="12" data-grid-rows="11" data-cell-size="72" data-origin-x="48" data-origin-y="84" data-dot-radius="24" data-zero="hollow-circle">
      <circle cx="84" cy="120" r="24" fill="none" stroke="#006100" stroke-width="1"/>
      <circle cx="156" cy="120" r="24"/>
      <circle cx="228" cy="120" r="24"/>
      <circle cx="300" cy="120" r="24" fill="none" stroke="#006100" stroke-width="1"/>
      <circle cx="372" cy="120" r="24" fill="none" stroke="#006100" stroke-width="1"/>
      <circle cx="444" cy="120" r="24" fill="none" stroke="#006100" stroke-width="1"/>
      <circle cx="516" cy="120" r="24" fill="none" stroke="#006100" stroke-width="1"/>
      <circle cx="588" cy="120" r="24"/>
      <circle cx="660" cy="120" r="24" fill="none" stroke="#006100" stroke-width="1"/>
      <circle cx="732" cy="120" r="24"/>
      <circle cx="804" cy="120" r="24"/>
      <circle cx="876" cy="120" r="24" fill="none" stroke="#006100" stroke-width="1"/>
      <circle cx="84" cy="192" r="24" fill="none" stroke="#006100" stroke-width="1"/>
      <circle cx="156" cy="192" r="24" fill="none" stroke="#006100" stroke-width="1"/>
      <circle cx="228" cy="192" r="24" fill="none" stroke="#006100" stroke-width="1"/>
      <circle cx="300" cy="192" r="24"/>
      <circle cx="372" cy="192" r="24" fill="none" stroke="#006100" stroke-width="1"/>
      <circle cx="444" cy="192" r="24"/>
      <circle cx="516" cy="192" r="24"/>
      <circle cx="588" cy="192" r="24" fill="none" stroke="#006100" stroke-width="1"/>
      <circle cx="660" cy="192" r="24" fill="none" stroke="#006100" stroke-width="1"/>
      <circle cx="732" cy="192" r="24" fill="none" stroke="#006100" stroke-width="1"/>
      <circle cx="804" cy="192" r="24" fill="none" stroke="#006100" stroke-width="1"/>
      <circle cx="876" cy="192" r="24"/>
      <circle cx="84" cy="264" r="24" fill="none" stroke="#006100" stroke-width="1"/>
      <circle cx="156" cy="264" r="24"/>
      <circle cx="228" cy="264" r="24"/>
      <circle cx="300" cy="264" r="24" fill="none" stroke="#006100" stroke-width="1"/>
      <circle cx="372" cy="264" r="24" fill="none" stroke="#006100" stroke-width="1"/>
      <circle cx="444" cy="264" r="24" fill="none" stroke="#006100" stroke-width="1"/>
      <circle cx="516" cy="264" r="24" fill="none" stroke="#006100" stroke-width="1"/>
      <circle cx="588" cy="264" r="24"/>
      <circle cx="660" cy="264" r="24" fill="none" stroke="#006100" stroke-width="1"/>
      <circle cx="732" cy="264" r="24"/>
      <circle cx="804" cy="264" r="24"/>
      <circle cx="876" cy="264" r="24" fill="none" stroke="#006100" stroke-width="1"/>
      <circle cx="84" cy="336" r="24" fill="none" stroke="#006100" stroke-width="1"/>
      <circle cx="156" cy="336" r="24" fill="none" stroke="#006100" stroke-width="1"/>
      <circle cx="228" cy="336" r="24" fill="none" stroke="#006100" stroke-width="1"/>
      <circle cx="300" cy="336" r="24"/>
      <circle cx="372" cy="336" r="24" fill="none" stroke="#006100" stroke-width="1"/>
      <circle cx="444" cy="336" r="24"/>
      <circle cx="516" cy="336" r="24"/>
      <circle cx="588" cy="336" r="24" fill="none" stroke="#006100" stroke-width="1"/>
      <circle cx="660" cy="336" r="24" fill="none" stroke="#006100" stroke-width="1"/>
      <circle cx="732" cy="336" r="24" fill="none" stroke="#006100" stroke-width="1"/>
      <circle cx="804" cy="336" r="24" fill="none" stroke="#006100" stroke-width="1"/>
      <circle cx="876" cy="336" r="24"/>
      <circle cx="84" cy="408" r="24" fill="none" stroke="#006100" stroke-width="1"/>
      <circle cx="156" cy="408" r="24"/>
      <circle cx="228" cy="408" r="24"/>
      <circle cx="300" cy="408" r="24" fill="none" stroke="#006100" stroke-width="1"/>
      <circle cx="372" cy="408" r="24" fill="none" stroke="#006100" stroke-width="1"/>
      <circle cx="444" cy="408" r="24" fill="none" stroke="#006100" stroke-width="1"/>
      <circle cx="516" cy="408" r="24" fill="none" stroke="#006100" stroke-width="1"/>
      <circle cx="588" cy="408" r="24"/>
      <circle cx="660" cy="408" r="24" fill="none" stroke="#006100" stroke-width="1"/>
      <circle cx="732" cy="408" r="24"/>
      <circle cx="804" cy="408" r="24"/>
      <circle cx="876" cy="408" r="24" fill="none" stroke="#006100" stroke-width="1"/>
      <circle cx="84" cy="480" r="24" fill="none" stroke="#006100" stroke-width="1"/>
      <circle cx="156" cy="480" r="24" fill="none" stroke="#006100" stroke-width="1"/>
      <circle cx="228" cy="480" r="24" fill="none" stroke="#006100" stroke-width="1"/>
      <circle cx="300" cy="480" r="24"/>
      <circle cx="372" cy="480" r="24" fill="none" stroke="#006100" stroke-width="1"/>
      <circle cx="444" cy="480" r="24"/>
      <circle cx="516" cy="480" r="24"/>
      <circle cx="588" cy="480" r="24" fill="none" stroke="#006100" stroke-width="1"/>
      <circle cx="660" cy="480" r="24" fill="none" stroke="#006100" stroke-width="1"/>
      <circle cx="732" cy="480" r="24" fill="none" stroke="#006100" stroke-width="1"/>
      <circle cx="804" cy="480" r="24"/>
      <circle cx="876" cy="480" r="24" fill="none" stroke="#006100" stroke-width="1"/>
      <circle cx="84" cy="552" r="24" fill="none" stroke="#006100" stroke-width="1"/>
      <circle cx="156" cy="552" r="24"/>
      <circle cx="228" cy="552" r="24"/>
      <circle cx="300" cy="552" r="24" fill="none" stroke="#006100" stroke-width="1"/>
      <circle cx="372" cy="552" r="24" fill="none" stroke="#006100" stroke-width="1"/>
      <circle cx="444" cy="552" r="24" fill="none" stroke="#006100" stroke-width="1"/>
      <circle cx="516" cy="552" r="24"/>
      <circle cx="588" cy="552" r="24" fill="none" stroke="#006100" stroke-width="1"/>
      <circle cx="660" cy="552" r="24" fill="none" stroke="#006100" stroke-width="1"/>
      <circle cx="732" cy="552" r="24"/>
      <circle cx="804" cy="552" r="24"/>
      <circle cx="876" cy="552" r="24" fill="none" stroke="#006100" stroke-width="1"/>
      <circle cx="84" cy="624" r="24" fill="none" stroke="#006100" stroke-width="1"/>
      <circle cx="156" cy="624" r="24" fill="none" stroke="#006100" stroke-width="1"/>
      <circle cx="228" cy="624" r="24"/>
      <circle cx="300" cy="624" r="24" fill="none" stroke="#006100" stroke-width="1"/>
      <circle cx="372" cy="624" r="24" fill="none" stroke="#006100" stroke-width="1"/>
      <circle cx="444" cy="624" r="24"/>
      <circle cx="516" cy="624" r="24"/>
      <circle cx="588" cy="624" r="24" fill="none" stroke="#006100" stroke-width="1"/>
      <circle cx="660" cy="624" r="24" fill="none" stroke="#006100" stroke-width="1"/>
      <circle cx="732" cy="624" r="24" fill="none" stroke="#006100" stroke-width="1"/>
      <circle cx="804" cy="624" r="24"/>
      <circle cx="876" cy="624" r="24" fill="none" stroke="#006100" stroke-width="1"/>
      <circle cx="84" cy="696" r="24" fill="none" stroke="#006100" stroke-width="1"/>
      <circle cx="156" cy="696" r="24"/>
      <circle cx="228" cy="696" r="24"/>
      <circle cx="300" cy="696" r="24" fill="none" stroke="#006100" stroke-width="1"/>
      <circle cx="372" cy="696" r="24" fill="none" stroke="#006100" stroke-width="1"/>
      <circle cx="444" cy="696" r="24" fill="none" stroke="#006100" stroke-width="1"/>
      <circle cx="516" cy="696" r="24"/>
      <circle cx="588" cy="696" r="24" fill="none" stroke="#006100" stroke-width="1"/>
      <circle cx="660" cy="696" r="24" fill="none" stroke="#006100" stroke-width="1"/>
      <circle cx="732" cy="696" r="24"/>
      <circle cx="804" cy="696" r="24"/>
      <circle cx="876" cy="696" r="24" fill="none" stroke="#006100" stroke-width="1"/>
      <circle cx="84" cy="768" r="24" fill="none" stroke="#006100" stroke-width="1"/>
      <circle cx="156" cy="768" r="24" fill="none" stroke="#006100" stroke-width="1"/>
      <circle cx="228" cy="768" r="24"/>
      <circle cx="300" cy="768" r="24" fill="none" stroke="#006100" stroke-width="1"/>
      <circle cx="372" cy="768" r="24" fill="none" stroke="#006100" stroke-width="1"/>
      <circle cx="444" cy="768" r="24"/>
      <circle cx="516" cy="768" r="24"/>
      <circle cx="588" cy="768" r="24" fill="none" stroke="#006100" stroke-width="1"/>
      <circle cx="660" cy="768" r="24" fill="none" stroke="#006100" stroke-width="1"/>
      <circle cx="732" cy="768" r="24" fill="none" stroke="#006100" stroke-width="1"/>
      <circle cx="804" cy="768" r="24"/>
      <circle cx="876" cy="768" r="24" fill="none" stroke="#006100" stroke-width="1"/>
      <circle cx="84" cy="840" r="24" fill="none" stroke="#006100" stroke-width="1"/>
      <circle cx="156" cy="840" r="24"/>
      <circle cx="228" cy="840" r="24"/>
      <circle cx="300" cy="840" r="24" fill="none" stroke="#006100" stroke-width="1"/>
      <circle cx="372" cy="840" r="24" fill="none" stroke="#006100" stroke-width="1"/>
      <circle cx="444" cy="840" r="24" fill="none" stroke="#006100" stroke-width="1"/>
      <circle cx="516" cy="840" r="24"/>
      <circle cx="588" cy="840" r="24" fill="none" stroke="#006100" stroke-width="1"/>
    </g>

    <defs>
      <clipPath id="agent-line-clip">
        <rect x="88" y="378" width="784" height="70" rx="8"/>
      </clipPath>
      <clipPath id="prompt-line-clip">
        <rect x="166" y="868" width="628" height="44" rx="8"/>
      </clipPath>
    </defs>

    <g id="agent-line-area">
      <rect id="agent-line-bg" x="87" y="378" width="786" height="70" rx="8" fill="none" stroke="#ffffff" stroke-width="1"/>
      <text id="agent-line-text" x="480" y="413" text-anchor="middle" dominant-baseline="middle" font-family="ui-monospace, SFMono-Regular, Menlo, Monaco, Consolas, 'Noto Sans Mono', 'Noto Sans Mono CJK SC', 'Noto Sans Mono CJK JP', 'Noto Sans Mono CJK KR', 'Noto Sans', monospace, sans-serif" font-size="44" fill="#ffffff" clip-path="url(#agent-line-clip)">bbbbbbbb</text>
    </g>

    <g id="prompt-line-area">
      <rect id="prompt-line-bg" x="165" y="868" width="630" height="44" rx="8" fill="none" stroke="#ffffff" stroke-width="1"/>
      <text id="prompt-line-text" x="480" y="890" text-anchor="middle" dominant-baseline="middle" font-family="ui-monospace, SFMono-Regular, Menlo, Monaco, Consolas, 'Noto Sans Mono', 'Noto Sans Mono CJK SC', 'Noto Sans Mono CJK JP', 'Noto Sans Mono CJK KR', 'Noto Sans', monospace, sans-serif" font-size="16" fill="#ffffff" clip-path="url(#prompt-line-clip)">aaaaaaaa</text>
    </g>
  </g>
</svg>