<svg xmlns="http://www.w3.org/2000/svg" width="960" height="960" viewBox="0 0 960 960"><rect id="canvas-bg" width="960" height="960" fill="#000000"/><g id="binary-background" opacity="1" fill="#006100" aria-label="Orthogonal UTF-8 binary weave: prompt bits travel horizontally and Agent bits travel vertically; filled circles are one bits and hollow rings are zero bits" data-grid-columns="32" data-grid-rows="32" data-bit-capacity="1024" data-prompt-bit-positions="512" data-agent-bit-positions="512" data-one-cells="494" data-zero-cells="346" data-rendered-cells="840" data-cleared-cells="184" data-pack="msb-first-128-bytes" data-cell-size="24" data-origin-x="96" data-origin-y="96" data-dot-radius="6" data-zero="hollow-circle"><defs><circle id="binary-one" r="6" fill="#006100"/><pattern id="binary-zero-pattern" x="96" y="96" width="24" height="24" patternUnits="userSpaceOnUse"><circle id="binary-zero" cx="12" cy="12" r="7" fill="none" stroke="#006100" stroke-width="2"/></pattern></defs><rect id="binary-zero-field" x="96" y="96" width="768" height="768" fill="url(#binary-zero-pattern)"/><use href="#binary-one" x="108" y="108"/><use href="#binary-one" x="132" y="108"/><use href="#binary-one" x="156" y="108"/><use href="#binary-one" x="180" y="108"/><use href="#binary-one" x="276" y="108"/><use href="#binary-one" x="300" y="108"/><use href="#binary-one" x="324" y="108"/><use href="#binary-one" x="348" y="108"/><use href="#binary-one" x="372" y="108"/><use href="#binary-one" x="396" y="108"/><use href="#binary-one" x="420" y="108"/><use href="#binary-one" x="468" y="108"/><use href="#binary-one" x="492" y="108"/><use href="#binary-one" x="516" y="108"/><use href="#binary-one" x="564" y="108"/><use href="#binary-one" x="588" y="108"/><use href="#binary-one" x="612" y="108"/><use href="#binary-one" x="660" y="108"/><use href="#binary-one" x="684" y="108"/><use href="#binary-one" x="708" y="108"/><use href="#binary-one" x="732" y="108"/><use href="#binary-one" x="756" y="108"/><use href="#binary-one" x="780" y="108"/><use href="#binary-one" x="804" y="108"/><use href="#binary-one" x="852" y="108"/><use href="#binary-one" x="108" y="132"/><use href="#binary-one" x="132" y="132"/><use href="#binary-one" x="156" y="132"/><use href="#binary-one" x="180" y="132"/><use href="#binary-one" x="204" y="132"/><use href="#binary-one" x="252" y="132"/><use href="#binary-one" x="300" y="132"/><use href="#binary-one" x="324" y="132"/><use href="#binary-one" x="348" y="132"/><use href="#binary-one" x="372" y="132"/><use href="#binary-one" x="396" y="132"/><use href="#binary-one" x="420" y="132"/><use href="#binary-one" x="444" y="132"/><use href="#binary-one" x="468" y="132"/><use href="#binary-one" x="492" y="132"/><use href="#binary-one" x="516" y="132"/><use href="#binary-one" x="540" y="132"/><use href="#binary-one" x="588" y="132"/><use href="#binary-one" x="636" y="132"/><use href="#binary-one" x="684" y="132"/><use href="#binary-one" x="732" y="132"/><use href="#binary-one" x="780" y="132"/><use href="#binary-one" x="804" y="132"/><use href="#binary-one" x="828" y="132"/><use href="#binary-one" x="852" y="132"/><use href="#binary-one" x="108" y="156"/><use href="#binary-one" x="132" y="156"/><use href="#binary-one" x="156" y="156"/><use href="#binary-one" x="180" y="156"/><use href="#binary-one" x="300" y="156"/><use href="#binary-one" x="348" y="156"/><use href="#binary-one" x="396" y="156"/><use href="#binary-one" x="444" y="156"/><use href="#binary-one" x="492" y="156"/><use href="#binary-one" x="564" y="156"/><use href="#binary-one" x="612" y="156"/><use href="#binary-one" x="660" y="156"/><use href="#binary-one" x="708" y="156"/><use href="#binary-one" x="732" y="156"/><use href="#binary-one" x="756" y="156"/><use href="#binary-one" x="804" y="156"/><use href="#binary-one" x="828" y="156"/><use href="#binary-one" x="852" y="156"/><use href="#binary-one" x="108" y="180"/><use href="#binary-one" x="132" y="180"/><use href="#binary-one" x="156" y="180"/><use href="#binary-one" x="180" y="180"/><use href="#binary-one" x="204" y="180"/><use href="#binary-one" x="324" y="180"/><use href="#binary-one" x="372" y="180"/><use href="#binary-one" x="420" y="180"/><use href="#binary-one" x="468" y="180"/><use href="#binary-one" x="516" y="180"/><use href="#binary-one" x="588" y="180"/><use href="#binary-one" x="636" y="180"/><use href="#binary-one" x="684" y="180"/><use href="#binary-one" x="732" y="180"/><use href="#binary-one" x="756" y="180"/><use href="#binary-one" x="780" y="180"/><use href="#binary-one" x="804" y="180"/><use href="#binary-one" x="828" y="180"/><use href="#binary-one" x="852" y="180"/><use href="#binary-one" x="108" y="204"/><use href="#binary-one" x="156" y="204"/><use href="#binary-one" x="228" y="204"/><use href="#binary-one" x="300" y="204"/><use href="#binary-one" x="324" y="204"/><use href="#binary-one" x="348" y="204"/><use href="#binary-one" x="372" y="204"/><use href="#binary-one" x="396" y="204"/><use href="#binary-one" x="420" y="204"/><use href="#binary-one" x="492" y="204"/><use href="#binary-one" x="516" y="204"/><use href="#binary-one" x="588" y="204"/><use href="#binary-one" x="636" y="204"/><use href="#binary-one" x="684" y="204"/><use href="#binary-one" x="732" y="204"/><use href="#binary-one" x="780" y="204"/><use href="#binary-one" x="828" y="204"/><use href="#binary-one" x="228" y="228"/><use href="#binary-one" x="252" y="228"/><use href="#binary-one" x="300" y="228"/><use href="#binary-one" x="444" y="228"/><use href="#binary-one" x="492" y="228"/><use href="#binary-one" x="516" y="228"/><use href="#binary-one" x="540" y="228"/><use href="#binary-one" x="564" y="228"/><use href="#binary-one" x="708" y="228"/><use href="#binary-one" x="756" y="228"/><use href="#binary-one" x="804" y="228"/><use href="#binary-one" x="852" y="228"/><use href="#binary-one" x="108" y="252"/><use href="#binary-one" x="324" y="252"/><use href="#binary-one" x="372" y="252"/><use href="#binary-one" x="396" y="252"/><use href="#binary-one" x="420" y="252"/><use href="#binary-one" x="444" y="252"/><use href="#binary-one" x="492" y="252"/><use href="#binary-one" x="516" y="252"/><use href="#binary-one" x="540" y="252"/><use href="#binary-one" x="684" y="252"/><use href="#binary-one" x="732" y="252"/><use href="#binary-one" x="780" y="252"/><use href="#binary-one" x="132" y="276"/><use href="#binary-one" x="228" y="276"/><use href="#binary-one" x="252" y="276"/><use href="#binary-one" x="324" y="276"/><use href="#binary-one" x="372" y="276"/><use href="#binary-one" x="420" y="276"/><use href="#binary-one" x="492" y="276"/><use href="#binary-one" x="516" y="276"/><use href="#binary-one" x="540" y="276"/><use href="#binary-one" x="564" y="276"/><use href="#binary-one" x="708" y="276"/><use href="#binary-one" x="756" y="276"/><use href="#binary-one" x="804" y="276"/><use href="#binary-one" x="108" y="300"/><use href="#binary-one" x="132" y="300"/><use href="#binary-one" x="180" y="300"/><use href="#binary-one" x="204" y="300"/><use href="#binary-one" x="252" y="300"/><use href="#binary-one" x="300" y="300"/><use href="#binary-one" x="324" y="300"/><use href="#binary-one" x="348" y="300"/><use href="#binary-one" x="492" y="300"/><use href="#binary-one" x="516" y="300"/><use href="#binary-one" x="540" y="300"/><use href="#binary-one" x="564" y="300"/><use href="#binary-one" x="612" y="300"/><use href="#binary-one" x="660" y="300"/><use href="#binary-one" x="684" y="300"/><use href="#binary-one" x="708" y="300"/><use href="#binary-one" x="732" y="300"/><use href="#binary-one" x="756" y="300"/><use href="#binary-one" x="780" y="300"/><use href="#binary-one" x="804" y="300"/><use href="#binary-one" x="852" y="300"/><use href="#binary-one" x="108" y="324"/><use href="#binary-one" x="132" y="324"/><use href="#binary-one" x="156" y="324"/><use href="#binary-one" x="204" y="324"/><use href="#binary-one" x="228" y="324"/><use href="#binary-one" x="276" y="324"/><use href="#binary-one" x="300" y="324"/><use href="#binary-one" x="444" y="324"/><use href="#binary-one" x="468" y="324"/><use href="#binary-one" x="516" y="324"/><use href="#binary-one" x="564" y="324"/><use href="#binary-one" x="588" y="324"/><use href="#binary-one" x="636" y="324"/><use href="#binary-one" x="684" y="324"/><use href="#binary-one" x="708" y="324"/><use href="#binary-one" x="732" y="324"/><use href="#binary-one" x="756" y="324"/><use href="#binary-one" x="780" y="324"/><use href="#binary-one" x="804" y="324"/><use href="#binary-one" x="828" y="324"/><use href="#binary-one" x="108" y="348"/><use href="#binary-one" x="132" y="348"/><use href="#binary-one" x="180" y="348"/><use href="#binary-one" x="204" y="348"/><use href="#binary-one" x="300" y="348"/><use href="#binary-one" x="324" y="348"/><use href="#binary-one" x="348" y="348"/><use href="#binary-one" x="372" y="348"/><use href="#binary-one" x="396" y="348"/><use href="#binary-one" x="420" y="348"/><use href="#binary-one" x="492" y="348"/><use href="#binary-one" x="516" y="348"/><use href="#binary-one" x="540" y="348"/><use href="#binary-one" x="564" y="348"/><use href="#binary-one" x="612" y="348"/><use href="#binary-one" x="660" y="348"/><use href="#binary-one" x="684" y="348"/><use href="#binary-one" x="708" y="348"/><use href="#binary-one" x="732" y="348"/><use href="#binary-one" x="756" y="348"/><use href="#binary-one" x="780" y="348"/><use href="#binary-one" x="804" y="348"/><use href="#binary-one" x="828" y="348"/><use href="#binary-one" x="852" y="348"/><use href="#binary-one" x="132" y="468"/><use href="#binary-one" x="180" y="468"/><use href="#binary-one" x="252" y="468"/><use href="#binary-one" x="324" y="468"/><use href="#binary-one" x="372" y="468"/><use href="#binary-one" x="396" y="468"/><use href="#binary-one" x="420" y="468"/><use href="#binary-one" x="468" y="468"/><use href="#binary-one" x="492" y="468"/><use href="#binary-one" x="516" y="468"/><use href="#binary-one" x="540" y="468"/><use href="#binary-one" x="588" y="468"/><use href="#binary-one" x="780" y="468"/><use href="#binary-one" x="804" y="468"/><use href="#binary-one" x="852" y="468"/><use href="#binary-one" x="108" y="492"/><use href="#binary-one" x="132" y="492"/><use href="#binary-one" x="156" y="492"/><use href="#binary-one" x="180" y="492"/><use href="#binary-one" x="228" y="492"/><use href="#binary-one" x="276" y="492"/><use href="#binary-one" x="300" y="492"/><use href="#binary-one" x="324" y="492"/><use href="#binary-one" x="348" y="492"/><use href="#binary-one" x="372" y="492"/><use href="#binary-one" x="396" y="492"/><use href="#binary-one" x="420" y="492"/><use href="#binary-one" x="468" y="492"/><use href="#binary-one" x="492" y="492"/><use href="#binary-one" x="516" y="492"/><use href="#binary-one" x="564" y="492"/><use href="#binary-one" x="588" y="492"/><use href="#binary-one" x="612" y="492"/><use href="#binary-one" x="660" y="492"/><use href="#binary-one" x="684" y="492"/><use href="#binary-one" x="708" y="492"/><use href="#binary-one" x="732" y="492"/><use href="#binary-one" x="756" y="492"/><use href="#binary-one" x="780" y="492"/><use href="#binary-one" x="804" y="492"/><use href="#binary-one" x="852" y="492"/><use href="#binary-one" x="108" y="516"/><use href="#binary-one" x="132" y="516"/><use href="#binary-one" x="156" y="516"/><use href="#binary-one" x="180" y="516"/><use href="#binary-one" x="204" y="516"/><use href="#binary-one" x="252" y="516"/><use href="#binary-one" x="300" y="516"/><use href="#binary-one" x="324" y="516"/><use href="#binary-one" x="348" y="516"/><use href="#binary-one" x="372" y="516"/><use href="#binary-one" x="396" y="516"/><use href="#binary-one" x="420" y="516"/><use href="#binary-one" x="444" y="516"/><use href="#binary-one" x="492" y="516"/><use href="#binary-one" x="516" y="516"/><use href="#binary-one" x="588" y="516"/><use href="#binary-one" x="612" y="516"/><use href="#binary-one" x="636" y="516"/><use href="#binary-one" x="660" y="516"/><use href="#binary-one" x="684" y="516"/><use href="#binary-one" x="708" y="516"/><use href="#binary-one" x="732" y="516"/><use href="#binary-one" x="756" y="516"/><use href="#binary-one" x="780" y="516"/><use href="#binary-one" x="828" y="516"/><use href="#binary-one" x="108" y="540"/><use href="#binary-one" x="156" y="540"/><use href="#binary-one" x="228" y="540"/><use href="#binary-one" x="276" y="540"/><use href="#binary-one" x="300" y="540"/><use href="#binary-one" x="324" y="540"/><use href="#binary-one" x="348" y="540"/><use href="#binary-one" x="372" y="540"/><use href="#binary-one" x="396" y="540"/><use href="#binary-one" x="420" y="540"/><use href="#binary-one" x="468" y="540"/><use href="#binary-one" x="492" y="540"/><use href="#binary-one" x="516" y="540"/><use href="#binary-one" x="588" y="540"/><use href="#binary-one" x="636" y="540"/><use href="#binary-one" x="828" y="540"/><use href="#binary-one" x="132" y="564"/><use href="#binary-one" x="180" y="564"/><use href="#binary-one" x="252" y="564"/><use href="#binary-one" x="300" y="564"/><use href="#binary-one" x="324" y="564"/><use href="#binary-one" x="348" y="564"/><use href="#binary-one" x="372" y="564"/><use href="#binary-one" x="396" y="564"/><use href="#binary-one" x="420" y="564"/><use href="#binary-one" x="444" y="564"/><use href="#binary-one" x="492" y="564"/><use href="#binary-one" x="516" y="564"/><use href="#binary-one" x="612" y="564"/><use href="#binary-one" x="708" y="564"/><use href="#binary-one" x="756" y="564"/><use href="#binary-one" x="804" y="564"/><use href="#binary-one" x="108" y="588"/><use href="#binary-one" x="156" y="588"/><use href="#binary-one" x="180" y="588"/><use href="#binary-one" x="300" y="588"/><use href="#binary-one" x="348" y="588"/><use href="#binary-one" x="396" y="588"/><use href="#binary-one" x="444" y="588"/><use href="#binary-one" x="492" y="588"/><use href="#binary-one" x="564" y="588"/><use href="#binary-one" x="612" y="588"/><use href="#binary-one" x="756" y="588"/><use href="#binary-one" x="780" y="588"/><use href="#binary-one" x="804" y="588"/><use href="#binary-one" x="828" y="588"/><use href="#binary-one" x="852" y="588"/><use href="#binary-one" x="108" y="612"/><use href="#binary-one" x="132" y="612"/><use href="#binary-one" x="156" y="612"/><use href="#binary-one" x="180" y="612"/><use href="#binary-one" x="204" y="612"/><use href="#binary-one" x="324" y="612"/><use href="#binary-one" x="372" y="612"/><use href="#binary-one" x="420" y="612"/><use href="#binary-one" x="468" y="612"/><use href="#binary-one" x="516" y="612"/><use href="#binary-one" x="540" y="612"/><use href="#binary-one" x="636" y="612"/><use href="#binary-one" x="684" y="612"/><use href="#binary-one" x="732" y="612"/><use href="#binary-one" x="756" y="612"/><use href="#binary-one" x="828" y="612"/><use href="#binary-one" x="852" y="612"/><use href="#binary-one" x="108" y="636"/><use href="#binary-one" x="156" y="636"/><use href="#binary-one" x="180" y="636"/><use href="#binary-one" x="300" y="636"/><use href="#binary-one" x="348" y="636"/><use href="#binary-one" x="396" y="636"/><use href="#binary-one" x="444" y="636"/><use href="#binary-one" x="492" y="636"/><use href="#binary-one" x="564" y="636"/><use href="#binary-one" x="732" y="636"/><use href="#binary-one" x="780" y="636"/><use href="#binary-one" x="804" y="636"/><use href="#binary-one" x="828" y="636"/><use href="#binary-one" x="852" y="636"/><use href="#binary-one" x="132" y="660"/><use href="#binary-one" x="156" y="660"/><use href="#binary-one" x="180" y="660"/><use href="#binary-one" x="204" y="660"/><use href="#binary-one" x="324" y="660"/><use href="#binary-one" x="372" y="660"/><use href="#binary-one" x="420" y="660"/><use href="#binary-one" x="516" y="660"/><use href="#binary-one" x="612" y="660"/><use href="#binary-one" x="636" y="660"/><use href="#binary-one" x="660" y="660"/><use href="#binary-one" x="684" y="660"/><use href="#binary-one" x="708" y="660"/><use href="#binary-one" x="732" y="660"/><use href="#binary-one" x="756" y="660"/><use href="#binary-one" x="804" y="660"/><use href="#binary-one" x="828" y="660"/><use href="#binary-one" x="852" y="660"/><use href="#binary-one" x="180" y="684"/><use href="#binary-one" x="204" y="684"/><use href="#binary-one" x="228" y="684"/><use href="#binary-one" x="276" y="684"/><use href="#binary-one" x="324" y="684"/><use href="#binary-one" x="372" y="684"/><use href="#binary-one" x="420" y="684"/><use href="#binary-one" x="468" y="684"/><use href="#binary-one" x="492" y="684"/><use href="#binary-one" x="516" y="684"/><use href="#binary-one" x="540" y="684"/><use href="#binary-one" x="612" y="684"/><use href="#binary-one" x="684" y="684"/><use href="#binary-one" x="732" y="684"/><use href="#binary-one" x="756" y="684"/><use href="#binary-one" x="780" y="684"/><use href="#binary-one" x="828" y="684"/><use href="#binary-one" x="108" y="708"/><use href="#binary-one" x="132" y="708"/><use href="#binary-one" x="252" y="708"/><use href="#binary-one" x="300" y="708"/><use href="#binary-one" x="348" y="708"/><use href="#binary-one" x="396" y="708"/><use href="#binary-one" x="420" y="708"/><use href="#binary-one" x="444" y="708"/><use href="#binary-one" x="468" y="708"/><use href="#binary-one" x="492" y="708"/><use href="#binary-one" x="516" y="708"/><use href="#binary-one" x="564" y="708"/><use href="#binary-one" x="636" y="708"/><use href="#binary-one" x="708" y="708"/><use href="#binary-one" x="756" y="708"/><use href="#binary-one" x="804" y="708"/><use href="#binary-one" x="828" y="708"/><use href="#binary-one" x="108" y="732"/><use href="#binary-one" x="180" y="732"/><use href="#binary-one" x="204" y="732"/><use href="#binary-one" x="228" y="732"/><use href="#binary-one" x="276" y="732"/><use href="#binary-one" x="300" y="732"/><use href="#binary-one" x="324" y="732"/><use href="#binary-one" x="348" y="732"/><use href="#binary-one" x="372" y="732"/><use href="#binary-one" x="396" y="732"/><use href="#binary-one" x="420" y="732"/><use href="#binary-one" x="468" y="732"/><use href="#binary-one" x="492" y="732"/><use href="#binary-one" x="516" y="732"/><use href="#binary-one" x="540" y="732"/><use href="#binary-one" x="612" y="732"/><use href="#binary-one" x="660" y="732"/><use href="#binary-one" x="684" y="732"/><use href="#binary-one" x="732" y="732"/><use href="#binary-one" x="756" y="732"/><use href="#binary-one" x="780" y="732"/><use href="#binary-one" x="804" y="732"/><use href="#binary-one" x="852" y="732"/><use href="#binary-one" x="108" y="756"/><use href="#binary-one" x="132" y="756"/><use href="#binary-one" x="156" y="756"/><use href="#binary-one" x="204" y="756"/><use href="#binary-one" x="228" y="756"/><use href="#binary-one" x="252" y="756"/><use href="#binary-one" x="276" y="756"/><use href="#binary-one" x="300" y="756"/><use href="#binary-one" x="324" y="756"/><use href="#binary-one" x="348" y="756"/><use href="#binary-one" x="372" y="756"/><use href="#binary-one" x="396" y="756"/><use href="#binary-one" x="444" y="756"/><use href="#binary-one" x="492" y="756"/><use href="#binary-one" x="516" y="756"/><use href="#binary-one" x="564" y="756"/><use href="#binary-one" x="636" y="756"/><use href="#binary-one" x="684" y="756"/><use href="#binary-one" x="708" y="756"/><use href="#binary-one" x="732" y="756"/><use href="#binary-one" x="756" y="756"/><use href="#binary-one" x="804" y="756"/><use href="#binary-one" x="828" y="756"/><use href="#binary-one" x="108" y="780"/><use href="#binary-one" x="204" y="780"/><use href="#binary-one" x="228" y="780"/><use href="#binary-one" x="252" y="780"/><use href="#binary-one" x="276" y="780"/><use href="#binary-one" x="324" y="780"/><use href="#binary-one" x="372" y="780"/><use href="#binary-one" x="420" y="780"/><use href="#binary-one" x="444" y="780"/><use href="#binary-one" x="468" y="780"/><use href="#binary-one" x="492" y="780"/><use href="#binary-one" x="516" y="780"/><use href="#binary-one" x="540" y="780"/><use href="#binary-one" x="684" y="780"/><use href="#binary-one" x="708" y="780"/><use href="#binary-one" x="732" y="780"/><use href="#binary-one" x="756" y="780"/><use href="#binary-one" x="780" y="780"/><use href="#binary-one" x="852" y="780"/><use href="#binary-one" x="108" y="804"/><use href="#binary-one" x="132" y="804"/><use href="#binary-one" x="204" y="804"/><use href="#binary-one" x="228" y="804"/><use href="#binary-one" x="252" y="804"/><use href="#binary-one" x="300" y="804"/><use href="#binary-one" x="324" y="804"/><use href="#binary-one" x="348" y="804"/><use href="#binary-one" x="372" y="804"/><use href="#binary-one" x="396" y="804"/><use href="#binary-one" x="420" y="804"/><use href="#binary-one" x="444" y="804"/><use href="#binary-one" x="492" y="804"/><use href="#binary-one" x="516" y="804"/><use href="#binary-one" x="564" y="804"/><use href="#binary-one" x="684" y="804"/><use href="#binary-one" x="708" y="804"/><use href="#binary-one" x="732" y="804"/><use href="#binary-one" x="756" y="804"/><use href="#binary-one" x="804" y="804"/><use href="#binary-one" x="852" y="804"/><use href="#binary-one" x="108" y="828"/><use href="#binary-one" x="132" y="828"/><use href="#binary-one" x="828" y="828"/><use href="#binary-one" x="852" y="828"/><use href="#binary-one" x="132" y="852"/><use href="#binary-one" x="852" y="852"/><rect id="agent-text-clear" x="92" y="372" width="776" height="76" fill="#000000"/><rect id="prompt-text-clear" x="148" y="820" width="664" height="48" fill="#000000"/></g><defs><clipPath id="agent-line-clip"><rect x="94" y="373" width="772" height="74" rx="9"/></clipPath><clipPath id="prompt-line-clip"><rect x="150" y="821" width="660" height="46" rx="9"/></clipPath></defs><g id="agent-line-area"><text id="agent-line-text" x="480" y="410" xml:space="preserve" text-anchor="middle" dominant-baseline="middle" font-family="ui-monospace, SFMono-Regular, Menlo, Monaco, Consolas, 'Noto Sans Mono', 'Noto Sans Mono CJK SC', 'Noto Sans Mono CJK JP', 'Noto Sans Mono CJK KR', 'Noto Sans', monospace, sans-serif" font-size="44" fill="#ffffff" clip-path="url(#agent-line-clip)">ήρεμη απάντηση</text></g><g id="prompt-line-area"><text id="prompt-line-text" x="480" y="844" xml:space="preserve" text-anchor="middle" dominant-baseline="middle" font-family="ui-monospace, SFMono-Regular, Menlo, Monaco, Consolas, 'Noto Sans Mono', 'Noto Sans Mono CJK SC', 'Noto Sans Mono CJK JP', 'Noto Sans Mono CJK KR', 'Noto Sans', monospace, sans-serif" font-size="16" fill="#ffffff" clip-path="url(#prompt-line-clip)">ήσυχο σήμα</text></g></svg>