<svg xmlns="http://www.w3.org/2000/svg" width="960" height="960" viewBox="0 0 960 960"><rect id="canvas-bg" width="960" height="960" fill="#000000"/><g id="binary-background" opacity="1" fill="#006100" aria-label="Interleaved UTF-8 binary field: 512 prompt positions and 512 Agent positions; filled circles are one bits and hollow rings are zero bits" data-grid-columns="32" data-grid-rows="32" data-bit-capacity="1024" data-prompt-bit-positions="512" data-agent-bit-positions="512" data-one-cells="468" data-zero-cells="424" data-rendered-cells="892" data-cleared-cells="132" data-pack="msb-first-128-bytes" data-cell-size="28" data-origin-x="32" data-origin-y="32" data-dot-radius="10" data-zero="hollow-circle"><defs><circle id="binary-one" r="10" fill="#006100"/><pattern id="binary-zero-pattern" x="32" y="32" width="28" height="28" patternUnits="userSpaceOnUse"><circle id="binary-zero" cx="14" cy="14" r="10" fill="none" stroke="#006100" stroke-width="1"/></pattern></defs><rect id="binary-zero-field" x="32" y="32" width="896" height="896" fill="url(#binary-zero-pattern)"/><use href="#binary-one" x="46" y="46"/><use href="#binary-one" x="74" y="46"/><use href="#binary-one" x="102" y="46"/><use href="#binary-one" x="130" y="46"/><use href="#binary-one" x="158" y="46"/><use href="#binary-one" x="186" y="46"/><use href="#binary-one" x="494" y="46"/><use href="#binary-one" x="522" y="46"/><use href="#binary-one" x="606" y="46"/><use href="#binary-one" x="634" y="46"/><use href="#binary-one" x="662" y="46"/><use href="#binary-one" x="690" y="46"/><use href="#binary-one" x="718" y="46"/><use href="#binary-one" x="746" y="46"/><use href="#binary-one" x="774" y="46"/><use href="#binary-one" x="802" y="46"/><use href="#binary-one" x="886" y="46"/><use href="#binary-one" x="914" y="46"/><use href="#binary-one" x="46" y="74"/><use href="#binary-one" x="74" y="74"/><use href="#binary-one" x="214" y="74"/><use href="#binary-one" x="242" y="74"/><use href="#binary-one" x="270" y="74"/><use href="#binary-one" x="298" y="74"/><use href="#binary-one" x="326" y="74"/><use href="#binary-one" x="354" y="74"/><use href="#binary-one" x="382" y="74"/><use href="#binary-one" x="410" y="74"/><use href="#binary-one" x="494" y="74"/><use href="#binary-one" x="522" y="74"/><use href="#binary-one" x="550" y="74"/><use href="#binary-one" x="578" y="74"/><use href="#binary-one" x="606" y="74"/><use href="#binary-one" x="634" y="74"/><use href="#binary-one" x="46" y="102"/><use href="#binary-one" x="74" y="102"/><use href="#binary-one" x="158" y="102"/><use href="#binary-one" x="186" y="102"/><use href="#binary-one" x="214" y="102"/><use href="#binary-one" x="242" y="102"/><use href="#binary-one" x="270" y="102"/><use href="#binary-one" x="298" y="102"/><use href="#binary-one" x="326" y="102"/><use href="#binary-one" x="354" y="102"/><use href="#binary-one" x="438" y="102"/><use href="#binary-one" x="466" y="102"/><use href="#binary-one" x="494" y="102"/><use href="#binary-one" x="522" y="102"/><use href="#binary-one" x="606" y="102"/><use href="#binary-one" x="634" y="102"/><use href="#binary-one" x="662" y="102"/><use href="#binary-one" x="690" y="102"/><use href="#binary-one" x="830" y="102"/><use href="#binary-one" x="858" y="102"/><use href="#binary-one" x="46" y="130"/><use href="#binary-one" x="74" y="130"/><use href="#binary-one" x="102" y="130"/><use href="#binary-one" x="130" y="130"/><use href="#binary-one" x="158" y="130"/><use href="#binary-one" x="186" y="130"/><use href="#binary-one" x="494" y="130"/><use href="#binary-one" x="522" y="130"/><use href="#binary-one" x="606" y="130"/><use href="#binary-one" x="634" y="130"/><use href="#binary-one" x="662" y="130"/><use href="#binary-one" x="690" y="130"/><use href="#binary-one" x="718" y="130"/><use href="#binary-one" x="746" y="130"/><use href="#binary-one" x="774" y="130"/><use href="#binary-one" x="802" y="130"/><use href="#binary-one" x="46" y="158"/><use href="#binary-one" x="74" y="158"/><use href="#binary-one" x="270" y="158"/><use href="#binary-one" x="298" y="158"/><use href="#binary-one" x="382" y="158"/><use href="#binary-one" x="410" y="158"/><use href="#binary-one" x="438" y="158"/><use href="#binary-one" x="466" y="158"/><use href="#binary-one" x="494" y="158"/><use href="#binary-one" x="522" y="158"/><use href="#binary-one" x="550" y="158"/><use href="#binary-one" x="578" y="158"/><use href="#binary-one" x="606" y="158"/><use href="#binary-one" x="634" y="158"/><use href="#binary-one" x="46" y="186"/><use href="#binary-one" x="74" y="186"/><use href="#binary-one" x="158" y="186"/><use href="#binary-one" x="186" y="186"/><use href="#binary-one" x="214" y="186"/><use href="#binary-one" x="242" y="186"/><use href="#binary-one" x="270" y="186"/><use href="#binary-one" x="298" y="186"/><use href="#binary-one" x="326" y="186"/><use href="#binary-one" x="354" y="186"/><use href="#binary-one" x="438" y="186"/><use href="#binary-one" x="466" y="186"/><use href="#binary-one" x="494" y="186"/><use href="#binary-one" x="522" y="186"/><use href="#binary-one" x="662" y="186"/><use href="#binary-one" x="690" y="186"/><use href="#binary-one" x="774" y="186"/><use href="#binary-one" x="802" y="186"/><use href="#binary-one" x="830" y="186"/><use href="#binary-one" x="858" y="186"/><use href="#binary-one" x="46" y="214"/><use href="#binary-one" x="74" y="214"/><use href="#binary-one" x="102" y="214"/><use href="#binary-one" x="130" y="214"/><use href="#binary-one" x="158" y="214"/><use href="#binary-one" x="186" y="214"/><use href="#binary-one" x="494" y="214"/><use href="#binary-one" x="522" y="214"/><use href="#binary-one" x="606" y="214"/><use href="#binary-one" x="634" y="214"/><use href="#binary-one" x="662" y="214"/><use href="#binary-one" x="690" y="214"/><use href="#binary-one" x="718" y="214"/><use href="#binary-one" x="746" y="214"/><use href="#binary-one" x="774" y="214"/><use href="#binary-one" x="802" y="214"/><use href="#binary-one" x="886" y="214"/><use href="#binary-one" x="914" y="214"/><use href="#binary-one" x="46" y="242"/><use href="#binary-one" x="74" y="242"/><use href="#binary-one" x="158" y="242"/><use href="#binary-one" x="186" y="242"/><use href="#binary-one" x="494" y="242"/><use href="#binary-one" x="522" y="242"/><use href="#binary-one" x="550" y="242"/><use href="#binary-one" x="578" y="242"/><use href="#binary-one" x="606" y="242"/><use href="#binary-one" x="634" y="242"/><use href="#binary-one" x="46" y="270"/><use href="#binary-one" x="74" y="270"/><use href="#binary-one" x="158" y="270"/><use href="#binary-one" x="186" y="270"/><use href="#binary-one" x="214" y="270"/><use href="#binary-one" x="242" y="270"/><use href="#binary-one" x="270" y="270"/><use href="#binary-one" x="298" y="270"/><use href="#binary-one" x="326" y="270"/><use href="#binary-one" x="354" y="270"/><use href="#binary-one" x="438" y="270"/><use href="#binary-one" x="466" y="270"/><use href="#binary-one" x="494" y="270"/><use href="#binary-one" x="522" y="270"/><use href="#binary-one" x="606" y="270"/><use href="#binary-one" x="634" y="270"/><use href="#binary-one" x="662" y="270"/><use href="#binary-one" x="690" y="270"/><use href="#binary-one" x="830" y="270"/><use href="#binary-one" x="858" y="270"/><use href="#binary-one" x="46" y="298"/><use href="#binary-one" x="74" y="298"/><use href="#binary-one" x="102" y="298"/><use href="#binary-one" x="130" y="298"/><use href="#binary-one" x="158" y="298"/><use href="#binary-one" x="186" y="298"/><use href="#binary-one" x="494" y="298"/><use href="#binary-one" x="522" y="298"/><use href="#binary-one" x="606" y="298"/><use href="#binary-one" x="634" y="298"/><use href="#binary-one" x="662" y="298"/><use href="#binary-one" x="690" y="298"/><use href="#binary-one" x="718" y="298"/><use href="#binary-one" x="746" y="298"/><use href="#binary-one" x="774" y="298"/><use href="#binary-one" x="802" y="298"/><use href="#binary-one" x="46" y="326"/><use href="#binary-one" x="74" y="326"/><use href="#binary-one" x="270" y="326"/><use href="#binary-one" x="298" y="326"/><use href="#binary-one" x="382" y="326"/><use href="#binary-one" x="410" y="326"/><use href="#binary-one" x="438" y="326"/><use href="#binary-one" x="466" y="326"/><use href="#binary-one" x="494" y="326"/><use href="#binary-one" x="522" y="326"/><use href="#binary-one" x="550" y="326"/><use href="#binary-one" x="578" y="326"/><use href="#binary-one" x="606" y="326"/><use href="#binary-one" x="634" y="326"/><use href="#binary-one" x="46" y="354"/><use href="#binary-one" x="74" y="354"/><use href="#binary-one" x="158" y="354"/><use href="#binary-one" x="186" y="354"/><use href="#binary-one" x="214" y="354"/><use href="#binary-one" x="242" y="354"/><use href="#binary-one" x="270" y="354"/><use href="#binary-one" x="298" y="354"/><use href="#binary-one" x="326" y="354"/><use href="#binary-one" x="354" y="354"/><use href="#binary-one" x="438" y="354"/><use href="#binary-one" x="466" y="354"/><use href="#binary-one" x="494" y="354"/><use href="#binary-one" x="522" y="354"/><use href="#binary-one" x="634" y="354"/><use href="#binary-one" x="662" y="354"/><use href="#binary-one" x="774" y="354"/><use href="#binary-one" x="830" y="354"/><use href="#binary-one" x="858" y="354"/><use href="#binary-one" x="914" y="354"/><use href="#binary-one" x="46" y="382"/><use href="#binary-one" x="74" y="382"/><use href="#binary-one" x="886" y="382"/><use href="#binary-one" x="914" y="382"/><use href="#binary-one" x="46" y="410"/><use href="#binary-one" x="74" y="410"/><use href="#binary-one" x="46" y="438"/><use href="#binary-one" x="74" y="438"/><use href="#binary-one" x="886" y="438"/><use href="#binary-one" x="46" y="466"/><use href="#binary-one" x="74" y="466"/><use href="#binary-one" x="102" y="466"/><use href="#binary-one" x="130" y="466"/><use href="#binary-one" x="158" y="466"/><use href="#binary-one" x="186" y="466"/><use href="#binary-one" x="494" y="466"/><use href="#binary-one" x="522" y="466"/><use href="#binary-one" x="606" y="466"/><use href="#binary-one" x="634" y="466"/><use href="#binary-one" x="662" y="466"/><use href="#binary-one" x="690" y="466"/><use href="#binary-one" x="718" y="466"/><use href="#binary-one" x="746" y="466"/><use href="#binary-one" x="774" y="466"/><use href="#binary-one" x="802" y="466"/><use href="#binary-one" x="886" y="466"/><use href="#binary-one" x="914" y="466"/><use href="#binary-one" x="46" y="494"/><use href="#binary-one" x="74" y="494"/><use href="#binary-one" x="186" y="494"/><use href="#binary-one" x="214" y="494"/><use href="#binary-one" x="242" y="494"/><use href="#binary-one" x="270" y="494"/><use href="#binary-one" x="326" y="494"/><use href="#binary-one" x="382" y="494"/><use href="#binary-one" x="410" y="494"/><use href="#binary-one" x="494" y="494"/><use href="#binary-one" x="522" y="494"/><use href="#binary-one" x="550" y="494"/><use href="#binary-one" x="578" y="494"/><use href="#binary-one" x="606" y="494"/><use href="#binary-one" x="634" y="494"/><use href="#binary-one" x="46" y="522"/><use href="#binary-one" x="74" y="522"/><use href="#binary-one" x="158" y="522"/><use href="#binary-one" x="186" y="522"/><use href="#binary-one" x="214" y="522"/><use href="#binary-one" x="242" y="522"/><use href="#binary-one" x="270" y="522"/><use href="#binary-one" x="298" y="522"/><use href="#binary-one" x="326" y="522"/><use href="#binary-one" x="354" y="522"/><use href="#binary-one" x="438" y="522"/><use href="#binary-one" x="494" y="522"/><use href="#binary-one" x="522" y="522"/><use href="#binary-one" x="606" y="522"/><use href="#binary-one" x="662" y="522"/><use href="#binary-one" x="746" y="522"/><use href="#binary-one" x="830" y="522"/><use href="#binary-one" x="858" y="522"/><use href="#binary-one" x="914" y="522"/><use href="#binary-one" x="46" y="550"/><use href="#binary-one" x="74" y="550"/><use href="#binary-one" x="102" y="550"/><use href="#binary-one" x="130" y="550"/><use href="#binary-one" x="158" y="550"/><use href="#binary-one" x="186" y="550"/><use href="#binary-one" x="494" y="550"/><use href="#binary-one" x="522" y="550"/><use href="#binary-one" x="606" y="550"/><use href="#binary-one" x="634" y="550"/><use href="#binary-one" x="662" y="550"/><use href="#binary-one" x="690" y="550"/><use href="#binary-one" x="718" y="550"/><use href="#binary-one" x="746" y="550"/><use href="#binary-one" x="774" y="550"/><use href="#binary-one" x="802" y="550"/><use href="#binary-one" x="914" y="550"/><use href="#binary-one" x="46" y="578"/><use href="#binary-one" x="74" y="578"/><use href="#binary-one" x="242" y="578"/><use href="#binary-one" x="270" y="578"/><use href="#binary-one" x="354" y="578"/><use href="#binary-one" x="382" y="578"/><use href="#binary-one" x="410" y="578"/><use href="#binary-one" x="438" y="578"/><use href="#binary-one" x="494" y="578"/><use href="#binary-one" x="522" y="578"/><use href="#binary-one" x="550" y="578"/><use href="#binary-one" x="578" y="578"/><use href="#binary-one" x="606" y="578"/><use href="#binary-one" x="634" y="578"/><use href="#binary-one" x="46" y="606"/><use href="#binary-one" x="74" y="606"/><use href="#binary-one" x="158" y="606"/><use href="#binary-one" x="186" y="606"/><use href="#binary-one" x="214" y="606"/><use href="#binary-one" x="242" y="606"/><use href="#binary-one" x="270" y="606"/><use href="#binary-one" x="298" y="606"/><use href="#binary-one" x="326" y="606"/><use href="#binary-one" x="354" y="606"/><use href="#binary-one" x="438" y="606"/><use href="#binary-one" x="466" y="606"/><use href="#binary-one" x="494" y="606"/><use href="#binary-one" x="522" y="606"/><use href="#binary-one" x="634" y="606"/><use href="#binary-one" x="662" y="606"/><use href="#binary-one" x="774" y="606"/><use href="#binary-one" x="830" y="606"/><use href="#binary-one" x="46" y="634"/><use href="#binary-one" x="74" y="634"/><use href="#binary-one" x="102" y="634"/><use href="#binary-one" x="130" y="634"/><use href="#binary-one" x="158" y="634"/><use href="#binary-one" x="186" y="634"/><use href="#binary-one" x="494" y="634"/><use href="#binary-one" x="522" y="634"/><use href="#binary-one" x="606" y="634"/><use href="#binary-one" x="634" y="634"/><use href="#binary-one" x="662" y="634"/><use href="#binary-one" x="690" y="634"/><use href="#binary-one" x="718" y="634"/><use href="#binary-one" x="746" y="634"/><use href="#binary-one" x="774" y="634"/><use href="#binary-one" x="802" y="634"/><use href="#binary-one" x="886" y="634"/><use href="#binary-one" x="914" y="634"/><use href="#binary-one" x="46" y="662"/><use href="#binary-one" x="74" y="662"/><use href="#binary-one" x="158" y="662"/><use href="#binary-one" x="186" y="662"/><use href="#binary-one" x="242" y="662"/><use href="#binary-one" x="410" y="662"/><use href="#binary-one" x="494" y="662"/><use href="#binary-one" x="522" y="662"/><use href="#binary-one" x="550" y="662"/><use href="#binary-one" x="578" y="662"/><use href="#binary-one" x="606" y="662"/><use href="#binary-one" x="634" y="662"/><use href="#binary-one" x="46" y="690"/><use href="#binary-one" x="74" y="690"/><use href="#binary-one" x="158" y="690"/><use href="#binary-one" x="186" y="690"/><use href="#binary-one" x="214" y="690"/><use href="#binary-one" x="242" y="690"/><use href="#binary-one" x="270" y="690"/><use href="#binary-one" x="298" y="690"/><use href="#binary-one" x="326" y="690"/><use href="#binary-one" x="354" y="690"/><use href="#binary-one" x="438" y="690"/><use href="#binary-one" x="494" y="690"/><use href="#binary-one" x="522" y="690"/><use href="#binary-one" x="606" y="690"/><use href="#binary-one" x="662" y="690"/><use href="#binary-one" x="746" y="690"/><use href="#binary-one" x="830" y="690"/><use href="#binary-one" x="858" y="690"/><use href="#binary-one" x="914" y="690"/><use href="#binary-one" x="46" y="718"/><use href="#binary-one" x="74" y="718"/><use href="#binary-one" x="102" y="718"/><use href="#binary-one" x="130" y="718"/><use href="#binary-one" x="158" y="718"/><use href="#binary-one" x="186" y="718"/><use href="#binary-one" x="494" y="718"/><use href="#binary-one" x="522" y="718"/><use href="#binary-one" x="606" y="718"/><use href="#binary-one" x="634" y="718"/><use href="#binary-one" x="662" y="718"/><use href="#binary-one" x="690" y="718"/><use href="#binary-one" x="718" y="718"/><use href="#binary-one" x="746" y="718"/><use href="#binary-one" x="774" y="718"/><use href="#binary-one" x="802" y="718"/><use href="#binary-one" x="914" y="718"/><use href="#binary-one" x="46" y="746"/><use href="#binary-one" x="74" y="746"/><use href="#binary-one" x="186" y="746"/><use href="#binary-one" x="270" y="746"/><use href="#binary-one" x="382" y="746"/><use href="#binary-one" x="410" y="746"/><use href="#binary-one" x="438" y="746"/><use href="#binary-one" x="466" y="746"/><use href="#binary-one" x="494" y="746"/><use href="#binary-one" x="522" y="746"/><use href="#binary-one" x="550" y="746"/><use href="#binary-one" x="578" y="746"/><use href="#binary-one" x="606" y="746"/><use href="#binary-one" x="634" y="746"/><use href="#binary-one" x="46" y="774"/><use href="#binary-one" x="74" y="774"/><use href="#binary-one" x="158" y="774"/><use href="#binary-one" x="186" y="774"/><use href="#binary-one" x="214" y="774"/><use href="#binary-one" x="242" y="774"/><use href="#binary-one" x="270" y="774"/><use href="#binary-one" x="298" y="774"/><use href="#binary-one" x="326" y="774"/><use href="#binary-one" x="354" y="774"/><use href="#binary-one" x="438" y="774"/><use href="#binary-one" x="466" y="774"/><use href="#binary-one" x="494" y="774"/><use href="#binary-one" x="522" y="774"/><use href="#binary-one" x="662" y="774"/><use href="#binary-one" x="690" y="774"/><use href="#binary-one" x="774" y="774"/><use href="#binary-one" x="830" y="774"/><use href="#binary-one" x="858" y="774"/><use href="#binary-one" x="914" y="774"/><use href="#binary-one" x="46" y="802"/><use href="#binary-one" x="74" y="802"/><use href="#binary-one" x="102" y="802"/><use href="#binary-one" x="130" y="802"/><use href="#binary-one" x="158" y="802"/><use href="#binary-one" x="186" y="802"/><use href="#binary-one" x="494" y="802"/><use href="#binary-one" x="522" y="802"/><use href="#binary-one" x="606" y="802"/><use href="#binary-one" x="634" y="802"/><use href="#binary-one" x="662" y="802"/><use href="#binary-one" x="690" y="802"/><use href="#binary-one" x="718" y="802"/><use href="#binary-one" x="746" y="802"/><use href="#binary-one" x="774" y="802"/><use href="#binary-one" x="802" y="802"/><use href="#binary-one" x="886" y="802"/><use href="#binary-one" x="914" y="802"/><use href="#binary-one" x="46" y="830"/><use href="#binary-one" x="74" y="830"/><use href="#binary-one" x="46" y="858"/><use href="#binary-one" x="74" y="858"/><use href="#binary-one" x="858" y="858"/><use href="#binary-one" x="886" y="858"/><use href="#binary-one" x="46" y="886"/><use href="#binary-one" x="74" y="886"/><use href="#binary-one" x="102" y="886"/><use href="#binary-one" x="130" y="886"/><use href="#binary-one" x="158" y="886"/><use href="#binary-one" x="186" y="886"/><use href="#binary-one" x="494" y="886"/><use href="#binary-one" x="522" y="886"/><use href="#binary-one" x="606" y="886"/><use href="#binary-one" x="634" y="886"/><use href="#binary-one" x="662" y="886"/><use href="#binary-one" x="690" y="886"/><use href="#binary-one" x="718" y="886"/><use href="#binary-one" x="746" y="886"/><use href="#binary-one" x="774" y="886"/><use href="#binary-one" x="802" y="886"/><use href="#binary-one" x="886" y="886"/><use href="#binary-one" x="46" y="914"/><use href="#binary-one" x="74" y="914"/><use href="#binary-one" x="214" y="914"/><use href="#binary-one" x="270" y="914"/><use href="#binary-one" x="298" y="914"/><use href="#binary-one" x="326" y="914"/><use href="#binary-one" x="382" y="914"/><use href="#binary-one" x="410" y="914"/><use href="#binary-one" x="466" y="914"/><use href="#binary-one" x="494" y="914"/><use href="#binary-one" x="522" y="914"/><use href="#binary-one" x="550" y="914"/><use href="#binary-one" x="578" y="914"/><use href="#binary-one" x="606" y="914"/><use href="#binary-one" x="634" y="914"/><rect id="agent-text-clear" x="92" y="372" width="776" height="76" fill="#000000"/><rect id="prompt-text-clear" x="148" y="820" width="664" height="48" fill="#000000"/></g><defs><clipPath id="agent-line-clip"><rect x="94" y="373" width="772" height="74" rx="9"/></clipPath><clipPath id="prompt-line-clip"><rect x="150" y="821" width="660" height="46" rx="9"/></clipPath></defs><g id="agent-line-area"><text id="agent-line-text" x="480" y="410" text-anchor="middle" dominant-baseline="middle" font-family="ui-monospace, SFMono-Regular, Menlo, Monaco, Consolas, 'Noto Sans Mono', 'Noto Sans Mono CJK SC', 'Noto Sans Mono CJK JP', 'Noto Sans Mono CJK KR', 'Noto Sans', monospace, sans-serif" font-size="44" fill="#ffffff" clip-path="url(#agent-line-clip)">ཞི་བའི་ལན</text></g><g id="prompt-line-area"><text id="prompt-line-text" x="480" y="844" text-anchor="middle" dominant-baseline="middle" font-family="ui-monospace, SFMono-Regular, Menlo, Monaco, Consolas, 'Noto Sans Mono', 'Noto Sans Mono CJK SC', 'Noto Sans Mono CJK JP', 'Noto Sans Mono CJK KR', 'Noto Sans', monospace, sans-serif" font-size="16" fill="#ffffff" clip-path="url(#prompt-line-clip)">ཞི་བའི་བརྡ</text></g></svg>