<svg xmlns="http://www.w3.org/2000/svg" width="1024" height="1024" viewBox="0 0 1024 1024" role="img" aria-label="uppercase signal. Prompt: THOUGHT WILL AWA. Agent: ABCDEFGHIJKLMNOPQRSTUVWXYZ" data-renderer="inshell.thought.study.inshell-mono-76-native-paths.v1.0.0" data-font-family="Inshell Mono 76" data-font-weight="400" data-package-release="v1.0.0" data-package-revision="mono-76-centerline-v1-20260731" data-package-manifest-sha256="3506060e6262da142b5d6cc858d03ebe875f3b9a5c52edc30d078b2f4a944c8c" data-wrap="greedy-space-then-fixed-cell-overlong-word" data-prompt-vertical-align="top" data-agent-vertical-align="bottom"><title>uppercase signal — Inshell Mono 76 Regular 400</title><rect id="work-frame" width="1024" height="1024" fill="#006100"/><g id="work-canvas" transform="translate(32 32)"><rect id="canvas-bg" width="960" height="960" fill="#000000"/><defs><path id="inshell-mono-76-g0041" d="M.35 .6L4 9.9L7.65 .6M2.7 3.75L5.3 3.75"/><path id="inshell-mono-76-g0042" d="M1.35 .6L1.35 9.9L3.65 9.9Q6.6 9.9 6.6 7.75Q6.6 5.35 3.65 5.35L1.35 5.35M3.65 5.35Q7.2 5.35 7.2 3.1Q7.2 .6 3.85 .6L1.35 .6"/><path id="inshell-mono-76-g0043" d="M7.1 8.95Q6.1 10.1 4 10.1Q.75 10.1 .75 5.25Q.85 .7 4.15 .45Q6.15 .4 7.35 1.75"/><path id="inshell-mono-76-g0044" d="M1.25 .6L1.25 9.9L4.25 9.9Q7.25 9.9 7.25 5.25Q7.25 .6 4.25 .6Z"/><path id="inshell-mono-76-g0045" d="M6.95 9.9L1.45 9.9L1.45 .6L7.15 .6M1.45 5.15L6.25 5.15"/><path id="inshell-mono-76-g0046" d="M7.4 9.9L1.7 9.9L1.7 .6M1.7 5.15L6.5 5.15"/><path id="inshell-mono-76-g0047" d="M6.95 9Q5.95 10.1 3.85 10.1Q.6 10.1 .6 5.25Q.6 .4 3.9 .5Q6.85 .45 7.1 1.65L7.05 4.9L4.05 4.9"/><path id="inshell-mono-76-g0048" d="M1 .6L1 9.9M7 .6L7 9.9M1 5.5L7 5.5"/><path id="inshell-mono-76-g0049" d="M1.4 9.9L6.6 9.9M4 9.9L4 .6M1.4 .6L6.6 .6"/><path id="inshell-mono-76-g004a" d="M1.9 9.9L7.4 9.9M6.4 9.9L6.4 2.2Q6.3 .5 4.05 .5Q2.25 .65 1.3 2"/><path id="inshell-mono-76-g004b" d="M1.25 .6L1.25 9.9M7.3 9.9L1.85 4.3M4.05 5.9L7.55 .6"/><path id="inshell-mono-76-g004c" d="M1.75 9.9L1.75 .6L7.45 .6"/><path id="inshell-mono-76-g004d" d="M1 .6L1 9.9L4 3L7 9.9L7 .6"/><path id="inshell-mono-76-g004e" d="M1.15 .6L1.15 9.9L6.85 .6L6.85 9.9"/><path id="inshell-mono-76-g004f" d="M3.9 10Q.8 9.7 .65 5.25Q.85 .35 4.15 .5Q7.15 .55 7.35 5.25Q7.35 9.8 4.25 10Z"/><path id="inshell-mono-76-g0050" d="M1.3 .6L1.3 9.9L4.4 9.9Q7.3 9.9 7.3 7.35Q7.3 4.8 4.4 4.8L1.3 4.8"/><path id="inshell-mono-76-g0051" d="M3.8 9.9Q.85 9.6 .65 5.25Q.7 .6 3.9 .5Q7.25 .55 7.35 5.25Q7.15 9.5 4.4 9.9ZM4.8 1.1L6.9 -1.25"/><path id="inshell-mono-76-g0052" d="M1.4 .6L1.4 9.9L3.8 9.9Q7.05 9.9 7.05 7.55Q7.05 4.95 3.85 4.95L1.4 4.95M4.05 4.95L7.35 .6"/><path id="inshell-mono-76-g0053" d="M7.1 8.95Q5.7 9.75 4.05 9.95Q1.75 9.85 1.5 7.9Q1.5 6.5 4.3 5.4Q7.1 4.3 7.1 2.7Q7.15 .55 3.95 .5Q2.15 .6 .75 1.8"/><path id="inshell-mono-76-g0054" d="M.5 9.9L7.5 9.9M4 9.9L4 .6"/><path id="inshell-mono-76-g0055" d="M1 9.9L1 3Q1.1 .5 3.9 .5Q6.8 .45 7 3L7 9.9"/><path id="inshell-mono-76-g0056" d="M1 9.9L4 .6L7 9.9"/><path id="inshell-mono-76-g0057" d="M0 9.9L2 .6L4 7.2L6 .6L8 9.9"/><path id="inshell-mono-76-g0058" d="M1 9.9L7 .6M7 9.9L1 .6"/><path id="inshell-mono-76-g0059" d="M1 9.9L4 3.9L7 9.9M4 3.9L4 .6"/><path id="inshell-mono-76-g005a" d="M1.1 9.9L7.1 9.9L1.1 .6L7.1 .6"/></defs><g id="prompt-line" fill="none" stroke="#00ff00" stroke-width="1.23" stroke-linecap="round" stroke-linejoin="round" data-source="THOUGHT WILL AWA" data-rows="1" data-field-x="57.6" data-field-y="128" data-field-width="844.8" data-field-height="256" data-field-bottom="384" data-horizontal-align="right" data-vertical-align="top"><g data-row="1" data-source="THOUGHT WILL AWA"><use href="#inshell-mono-76-g0054" transform="translate(444.48 171.52) scale(2.88 -2.88)"/><use href="#inshell-mono-76-g0048" transform="translate(473.28 171.52) scale(2.88 -2.88)"/><use href="#inshell-mono-76-g004f" transform="translate(502.08 171.52) scale(2.88 -2.88)"/><use href="#inshell-mono-76-g0055" transform="translate(530.88 171.52) scale(2.88 -2.88)"/><use href="#inshell-mono-76-g0047" transform="translate(559.68 171.52) scale(2.88 -2.88)"/><use href="#inshell-mono-76-g0048" transform="translate(588.48 171.52) scale(2.88 -2.88)"/><use href="#inshell-mono-76-g0054" transform="translate(617.28 171.52) scale(2.88 -2.88)"/><use href="#inshell-mono-76-g0057" transform="translate(674.88 171.52) scale(2.88 -2.88)"/><use href="#inshell-mono-76-g0049" transform="translate(703.68 171.52) scale(2.88 -2.88)"/><use href="#inshell-mono-76-g004c" transform="translate(732.48 171.52) scale(2.88 -2.88)"/><use href="#inshell-mono-76-g004c" transform="translate(761.28 171.52) scale(2.88 -2.88)"/><use href="#inshell-mono-76-g0041" transform="translate(818.88 171.52) scale(2.88 -2.88)"/><use href="#inshell-mono-76-g0057" transform="translate(847.68 171.52) scale(2.88 -2.88)"/><use href="#inshell-mono-76-g0041" transform="translate(876.48 171.52) scale(2.88 -2.88)"/></g></g><g id="agent-line" fill="none" stroke="#00ff00" stroke-width="1.23" stroke-linecap="round" stroke-linejoin="round" data-source="ABCDEFGHIJKLMNOPQRSTUVWXYZ" data-rows="1" data-field-x="57.6" data-field-y="576" data-field-width="844.8" data-field-height="256" data-field-bottom="832" data-horizontal-align="left" data-vertical-align="bottom"><g data-row="1" data-source="ABCDEFGHIJKLMNOPQRSTUVWXYZ"><use href="#inshell-mono-76-g0041" transform="translate(60.48 811.52) scale(2.88 -2.88)"/><use href="#inshell-mono-76-g0042" transform="translate(89.28 811.52) scale(2.88 -2.88)"/><use href="#inshell-mono-76-g0043" transform="translate(118.08 811.52) scale(2.88 -2.88)"/><use href="#inshell-mono-76-g0044" transform="translate(146.88 811.52) scale(2.88 -2.88)"/><use href="#inshell-mono-76-g0045" transform="translate(175.68 811.52) scale(2.88 -2.88)"/><use href="#inshell-mono-76-g0046" transform="translate(204.48 811.52) scale(2.88 -2.88)"/><use href="#inshell-mono-76-g0047" transform="translate(233.28 811.52) scale(2.88 -2.88)"/><use href="#inshell-mono-76-g0048" transform="translate(262.08 811.52) scale(2.88 -2.88)"/><use href="#inshell-mono-76-g0049" transform="translate(290.88 811.52) scale(2.88 -2.88)"/><use href="#inshell-mono-76-g004a" transform="translate(319.68 811.52) scale(2.88 -2.88)"/><use href="#inshell-mono-76-g004b" transform="translate(348.48 811.52) scale(2.88 -2.88)"/><use href="#inshell-mono-76-g004c" transform="translate(377.28 811.52) scale(2.88 -2.88)"/><use href="#inshell-mono-76-g004d" transform="translate(406.08 811.52) scale(2.88 -2.88)"/><use href="#inshell-mono-76-g004e" transform="translate(434.88 811.52) scale(2.88 -2.88)"/><use href="#inshell-mono-76-g004f" transform="translate(463.68 811.52) scale(2.88 -2.88)"/><use href="#inshell-mono-76-g0050" transform="translate(492.48 811.52) scale(2.88 -2.88)"/><use href="#inshell-mono-76-g0051" transform="translate(521.28 811.52) scale(2.88 -2.88)"/><use href="#inshell-mono-76-g0052" transform="translate(550.08 811.52) scale(2.88 -2.88)"/><use href="#inshell-mono-76-g0053" transform="translate(578.88 811.52) scale(2.88 -2.88)"/><use href="#inshell-mono-76-g0054" transform="translate(607.68 811.52) scale(2.88 -2.88)"/><use href="#inshell-mono-76-g0055" transform="translate(636.48 811.52) scale(2.88 -2.88)"/><use href="#inshell-mono-76-g0056" transform="translate(665.28 811.52) scale(2.88 -2.88)"/><use href="#inshell-mono-76-g0057" transform="translate(694.08 811.52) scale(2.88 -2.88)"/><use href="#inshell-mono-76-g0058" transform="translate(722.88 811.52) scale(2.88 -2.88)"/><use href="#inshell-mono-76-g0059" transform="translate(751.68 811.52) scale(2.88 -2.88)"/><use href="#inshell-mono-76-g005a" transform="translate(780.48 811.52) scale(2.88 -2.88)"/></g></g></g></svg>